<svg width="16" height="15" viewBox="0 0 16 15" fill="none" xmlns="http://www.w3.org/2000/svg">
<path d="M15.5232 8.43748H8.54416L13.1921 13.0673C13.3697 13.2443 13.6621 13.2586 13.8447 13.0872C14.983 12.0191 15.7659 10.5791 15.9956 8.96043C16.035 8.68328 15.8041 8.43748 15.5232 8.43748ZM15.0577 6.53902C14.8153 3.03918 12.0077 0.242468 8.49415 0.00105939C8.22592 -0.0173978 8.00004 0.207898 8.00004 0.475674V7.03121H14.5815C14.8503 7.03121 15.0762 6.80621 15.0577 6.53902ZM6.58828 8.43748V1.48555C6.58828 1.20576 6.34151 0.975777 6.06357 1.01504C2.55859 1.5084 -0.120524 4.55853 0.00418191 8.21394C0.132417 11.9681 3.37741 15.0466 7.14798 14.9995C8.63033 14.981 10 14.5052 11.1262 13.7095C11.3586 13.5454 11.3739 13.2047 11.1724 13.004L6.58828 8.43748Z" fill="white"/>
</svg>
