<svg width="27" height="35" viewBox="0 0 27 35" fill="none" xmlns="http://www.w3.org/2000/svg">
<path fill-rule="evenodd" clip-rule="evenodd" d="M0.41332 8.10571C0.18858 8.22564 0 8.53791 0 8.79016C0 9.05185 0.188367 9.35568 0.424663 9.47508C0.609728 9.56859 0.738022 9.58125 1.49884 9.58125H2.36286L2.61295 9.83825C2.77075 10.0003 2.90682 10.2096 2.98154 10.4052C3.07458 10.6487 3.34975 12.5695 4.26511 19.3644C4.90594 24.1214 5.45725 28.1322 5.49027 28.2773C5.71927 29.2837 6.63794 30.2643 7.6481 30.5804C7.95134 30.6754 8.03276 30.7212 8.0063 30.7824C7.81431 31.226 7.75487 31.4909 7.73405 31.9963C7.71365 32.4905 7.72638 32.5959 7.85079 32.9629C8.12788 33.7803 8.67493 34.3923 9.43249 34.7325C10.0653 35.0166 10.6859 35.0693 11.3671 34.8968C11.9132 34.7585 12.3067 34.5306 12.7282 34.1087C13.5105 33.3255 13.7764 32.1532 13.4028 31.134L13.274 30.7824H15.35C17.3068 30.7824 17.4238 30.7877 17.3866 30.8747C16.963 31.8644 17.0501 32.8666 17.6351 33.7341C18.1457 34.4912 19.1165 34.9999 20.0509 34.9999C20.7983 34.9999 21.5896 34.6676 22.1292 34.127C22.9879 33.2668 23.2092 32.0418 22.7161 30.8784C22.6817 30.7973 22.7775 30.7884 23.8507 30.7729C24.9367 30.7573 25.0336 30.748 25.1698 30.6473C25.6573 30.2864 25.6811 29.6742 25.2207 29.3337C25.0768 29.2273 25.0162 29.2264 16.6786 29.2002L8.28131 29.1738L7.97296 29.0192C7.61833 28.8414 7.2768 28.4994 7.13583 28.1811C7.0487 27.9843 6.87003 26.9426 6.87003 26.6313V26.5105H14.9538C15.4903 26.5105 15.9924 26.5106 16.4626 26.5107C22.7352 26.5117 23.3126 26.5118 23.7923 26.2954C23.8409 26.2735 23.8885 26.2493 23.941 26.2227C23.9798 26.203 24.0213 26.1819 24.0677 26.1595C24.8339 25.7889 25.5365 24.9293 25.7474 24.1043C25.8474 23.7134 27.0011 15.1606 27 14.8183C26.9966 13.7261 26.2504 12.7196 25.1767 12.359C24.8544 12.2508 24.7406 12.2467 21.5554 12.2298L20.9308 12.2276V13.8004L21.3423 13.8007C23.4002 13.8009 24.4884 13.82 24.6309 13.8586C25.0688 13.9771 25.3992 14.377 25.4019 14.792C25.4026 14.8878 25.1391 16.9288 24.8165 19.3275C24.2551 23.5008 24.2229 23.7031 24.0682 24.0172C23.8812 24.3972 23.5728 24.6748 23.1688 24.8268C22.9067 24.9254 22.6644 24.9283 14.7634 24.9283H6.62782L5.89427 19.4566C5.4908 16.4472 5.16189 13.9432 5.16328 13.8923C5.16567 13.8047 5.36331 13.8004 8.77393 13.8132L9.26743 13.815V12.2182H8.66145H4.91425L4.82308 11.493C4.63466 9.99457 4.3925 9.39139 3.70417 8.70573C3.07894 8.08298 2.92983 8.03341 1.62431 8.01426C0.694831 8.0006 0.596254 8.00809 0.41332 8.10571ZM11.2142 30.9079C12.2204 31.3719 12.2151 32.7946 11.2052 33.2908C10.908 33.4369 10.3282 33.4286 10.0311 33.274C9.75325 33.1295 9.462 32.7959 9.38163 32.5303C9.29525 32.2448 9.30462 31.8172 9.4023 31.585C9.5111 31.3263 9.82696 31.0047 10.092 30.8827C10.4006 30.7407 10.8746 30.7514 11.2142 30.9079ZM20.7484 30.9695C21.0566 31.1577 21.3259 31.5626 21.3798 31.9185C21.4572 32.4295 21.1375 33.0166 20.6403 33.2766C20.4784 33.3612 20.3295 33.3898 20.0509 33.3898C19.6086 33.3898 19.3464 33.2747 19.0508 32.9507C18.4735 32.3179 18.6722 31.3059 19.4503 30.9162C19.6916 30.7953 19.7848 30.7779 20.1093 30.7927C20.4185 30.8068 20.5348 30.839 20.7484 30.9695Z" fill="white"/>
<path fill-rule="evenodd" clip-rule="evenodd" d="M12.965 0.0248733C12.9 0.0558151 12.8306 0.113565 11.4866 1.25558C10.2404 2.31446 9.26966 3.1552 9.10845 3.31517C8.97637 3.44625 8.96818 3.5022 9.06621 3.60359C9.22236 3.76507 11.9011 6.05453 12.5251 6.5598C12.8093 6.78996 13.0137 6.92633 13.0743 6.92633C13.1755 6.92633 13.1809 6.90845 13.1948 6.52917C13.2018 6.33832 13.2081 5.89692 13.2088 5.54827L13.21 4.91437L13.5014 4.91887C14.1441 4.92883 15.2267 4.96231 15.4656 4.97964C16.6041 5.06217 17.6433 5.30822 18.9716 5.80966C20.1072 6.23837 20.8421 6.73476 21.5362 7.54186C22.2037 8.31805 22.6092 9.27749 22.6703 10.2256C22.7002 10.6889 22.6414 11.1868 22.5121 11.5658C22.429 11.8092 22.242 12.2242 22.1235 12.4281C22.0058 12.6308 21.8733 12.8007 21.525 13.1958C21.2337 13.5263 21.2224 13.547 21.2399 13.7164C21.2505 13.8187 21.2852 13.8766 21.3742 13.9407C21.4343 13.9839 21.4616 13.9911 21.5639 13.9909C21.6611 13.9906 21.7008 13.9809 21.7763 13.9391C21.9395 13.8487 22.1828 13.6332 22.4531 13.3395C22.8559 12.9021 23.1108 12.5107 23.3809 11.9149C23.6833 11.2477 23.861 10.6008 23.9589 9.81105C24.0136 9.37053 24.0137 8.57566 23.9592 8.13902C23.8385 7.17109 23.5536 6.32502 23.1023 5.59421C22.7113 4.96106 22.2175 4.44951 21.4891 3.92287C20.0562 2.88694 18.4666 2.31079 16.5723 2.14085C15.9572 2.08567 14.7472 2.03955 13.9011 2.03905C13.6911 2.03894 13.4508 2.03354 13.367 2.02707L13.2146 2.01531L13.2056 1.09459C13.1992 0.441119 13.1906 0.156376 13.1761 0.113601C13.1567 0.056495 13.0859 -0.00154862 13.0377 3.15509e-05C13.0256 0.00043578 12.9929 0.0116072 12.965 0.0248733ZM14.8574 8.09716C14.6891 8.14201 13.5362 8.57384 12.1709 9.10339C10.8776 9.60504 10.5456 9.75027 10.5053 9.832C10.4698 9.90414 10.5296 9.9554 10.7725 10.0612C11.1794 10.2385 12.1761 10.6298 14.1322 11.3802L14.9277 11.6853L16.5314 11.0686C18.9149 10.152 19.2838 10.0073 19.3202 9.97442C19.3812 9.91935 19.3563 9.77682 19.2788 9.73796C19.1798 9.68828 17.4113 8.99835 16.1837 8.53047C14.9726 8.06888 14.9685 8.06754 14.8574 8.09716ZM9.88187 10.7081C9.83992 10.7537 9.83262 10.7792 9.82 10.9239C9.7967 11.1914 9.80334 15.7196 9.82736 15.9452C9.85474 16.202 9.87667 16.2473 10.0059 16.3139C10.314 16.4726 14.1875 17.952 14.4059 17.9944C14.4545 18.0039 14.4639 17.9989 14.4819 17.955C14.4976 17.9166 14.5036 17.262 14.5075 15.1566L14.5126 12.4083L13.9585 12.1952C11.7708 11.3539 10.5843 10.8995 10.2814 10.787L9.92945 10.6564L9.88187 10.7081ZM19.4278 10.8394C18.7122 11.1099 15.4837 12.3508 15.3685 12.3996L15.322 12.4192V15.1726V17.926L15.364 17.9689C15.4143 18.0203 15.373 18.0306 15.9641 17.8192C17.0035 17.4475 19.4764 16.476 19.8502 16.2925C19.9013 16.2675 19.9595 16.2272 19.9795 16.2031L20.0158 16.1593L20.0268 13.789C20.0332 12.4162 20.0313 11.2763 20.0223 11.0801C20.0077 10.7617 20.0045 10.7394 19.9688 10.708C19.948 10.6897 19.9147 10.6751 19.8948 10.6756C19.8749 10.6761 19.6647 10.7498 19.4278 10.8394Z" fill="#2400FF"/>
</svg>
