<svg width="15" height="15" viewBox="0 0 15 15" fill="none" xmlns="http://www.w3.org/2000/svg">
<path d="M14.375 11.25C14.375 11.7188 14.2437 12.1625 14.0125 12.5375C13.8812 12.7625 13.7125 12.9625 13.5188 13.125C13.0813 13.5187 12.5062 13.75 11.875 13.75C11.1125 13.75 10.4313 13.4063 9.98125 12.8688C9.96875 12.85 9.95 12.8375 9.9375 12.8188C9.8625 12.7313 9.79375 12.6375 9.7375 12.5375C9.50625 12.1625 9.375 11.7188 9.375 11.25C9.375 10.4625 9.7375 9.75625 10.3125 9.3C10.7437 8.95625 11.2875 8.75 11.875 8.75C12.5 8.75 13.0625 8.97498 13.5 9.35623C13.575 9.41248 13.6437 9.48127 13.7062 9.55002C14.1187 10 14.375 10.5938 14.375 11.25Z" stroke="#555556" stroke-miterlimit="10" stroke-linecap="round" stroke-linejoin="round"/>
<path d="M12.8062 11.2374H10.9437" stroke="#555556" stroke-width="0.5" stroke-miterlimit="10" stroke-linecap="round" stroke-linejoin="round"/>
<path d="M11.875 10.325V12.1937" stroke="#555556" stroke-width="0.5" stroke-miterlimit="10" stroke-linecap="round" stroke-linejoin="round"/>
<path d="M1.98123 4.65002L7.49998 7.84376L12.9812 4.66875" stroke="#555556" stroke-linecap="round" stroke-linejoin="round"/>
<path d="M7.5 13.5063V7.83752" stroke="#555556" stroke-linecap="round" stroke-linejoin="round"/>
<path d="M13.5062 5.73125V9.26877C13.5062 9.30002 13.5062 9.32499 13.5 9.35624C13.0625 8.97499 12.5 8.75001 11.875 8.75001C11.2875 8.75001 10.7437 8.95626 10.3125 9.30001C9.73749 9.75626 9.37499 10.4625 9.37499 11.25C9.37499 11.7188 9.50625 12.1625 9.7375 12.5375C9.79375 12.6375 9.86249 12.7313 9.93749 12.8188L8.79375 13.45C8.08125 13.85 6.91874 13.85 6.20624 13.45L2.86874 11.6C2.11249 11.1813 1.49374 10.1313 1.49374 9.26877V5.73125C1.49374 4.86875 2.11249 3.81876 2.86874 3.40001L6.20624 1.55C6.91874 1.15 8.08125 1.15 8.79375 1.55L12.1312 3.40001C12.8875 3.81876 13.5062 4.86875 13.5062 5.73125Z" stroke="#555556" stroke-linecap="round" stroke-linejoin="round"/>
</svg>
