<svg width="27" height="33" viewBox="0 0 27 33" fill="none" xmlns="http://www.w3.org/2000/svg">
<path fill-rule="evenodd" clip-rule="evenodd" d="M0.41332 6.10571C0.18858 6.22564 0 6.53791 0 6.79016C0 7.05185 0.188367 7.35568 0.424663 7.47508C0.609728 7.56859 0.738022 7.58125 1.49884 7.58125H2.36286L2.61295 7.83825C2.77075 8.00031 2.90682 8.20964 2.98154 8.40519C3.07458 8.64869 3.34975 10.5695 4.26511 17.3644C4.90594 22.1214 5.45725 26.1322 5.49027 26.2773C5.71927 27.2837 6.63794 28.2643 7.6481 28.5804C7.95134 28.6754 8.03276 28.7212 8.0063 28.7824C7.81431 29.226 7.75487 29.4909 7.73405 29.9963C7.71365 30.4905 7.72638 30.5959 7.85079 30.9629C8.12788 31.7803 8.67493 32.3923 9.43249 32.7325C10.0653 33.0166 10.6859 33.0693 11.3671 32.8968C11.9132 32.7585 12.3067 32.5306 12.7282 32.1087C13.5105 31.3255 13.7764 30.1532 13.4028 29.134L13.274 28.7824H15.35C17.3068 28.7824 17.4238 28.7877 17.3866 28.8747C16.963 29.8644 17.0501 30.8666 17.6351 31.7341C18.1457 32.4912 19.1165 32.9999 20.0509 32.9999C20.7983 32.9999 21.5896 32.6676 22.1292 32.127C22.9879 31.2668 23.2092 30.0418 22.7161 28.8784C22.6817 28.7973 22.7775 28.7884 23.8507 28.7729C24.9367 28.7573 25.0336 28.748 25.1698 28.6473C25.6573 28.2864 25.6811 27.6742 25.2207 27.3337C25.0768 27.2273 25.0162 27.2264 16.6786 27.2002L8.28131 27.1738L7.97296 27.0192C7.61833 26.8414 7.2768 26.4994 7.13583 26.1811C7.0487 25.9843 6.87003 24.9426 6.87003 24.6313V24.5105H14.9538C15.4903 24.5105 15.9924 24.5106 16.4626 24.5107C22.7352 24.5117 23.3126 24.5118 23.7923 24.2954C23.8409 24.2735 23.8885 24.2493 23.941 24.2227C23.9798 24.203 24.0213 24.1819 24.0677 24.1595C24.8339 23.7889 25.5365 22.9293 25.7474 22.1043C25.8474 21.7134 27.0011 13.1606 27 12.8183C26.9966 11.7261 26.2504 10.7196 25.1767 10.359C24.8544 10.2508 24.7406 10.2467 21.5554 10.2298L20.9308 10.2276V11.8004L21.3423 11.8007C23.4002 11.8009 24.4884 11.82 24.6309 11.8586C25.0688 11.9771 25.3992 12.377 25.4019 12.792C25.4026 12.8878 25.1391 14.9288 24.8165 17.3275C24.2551 21.5008 24.2229 21.7031 24.0682 22.0172C23.8812 22.3972 23.5728 22.6748 23.1688 22.8268C22.9067 22.9254 22.6644 22.9283 14.7634 22.9283H6.62782L5.89427 17.4566C5.4908 14.4472 5.16189 11.9432 5.16328 11.8923C5.16567 11.8047 5.36331 11.8004 8.77393 11.8132L9.26743 11.815V10.2182H8.66145H4.91425L4.82308 9.49304C4.63466 7.99457 4.3925 7.39139 3.70417 6.70573C3.07894 6.08298 2.92983 6.03341 1.62431 6.01426C0.694831 6.0006 0.596254 6.00809 0.41332 6.10571ZM11.2142 28.9079C12.2204 29.3719 12.2151 30.7946 11.2052 31.2908C10.908 31.4369 10.3282 31.4286 10.0311 31.274C9.75325 31.1295 9.462 30.7959 9.38163 30.5303C9.29525 30.2448 9.30462 29.8172 9.4023 29.585C9.5111 29.3263 9.82696 29.0047 10.092 28.8827C10.4006 28.7407 10.8746 28.7514 11.2142 28.9079ZM20.7484 28.9695C21.0566 29.1577 21.3259 29.5626 21.3798 29.9185C21.4572 30.4295 21.1375 31.0166 20.6403 31.2766C20.4784 31.3612 20.3295 31.3898 20.0509 31.3898C19.6086 31.3898 19.3464 31.2747 19.0508 30.9507C18.4735 30.3179 18.6722 29.3059 19.4503 28.9162C19.6916 28.7953 19.7848 28.7779 20.1093 28.7927C20.4185 28.8068 20.5348 28.839 20.7484 28.9695Z" fill="white"/>
<path fill-rule="evenodd" clip-rule="evenodd" d="M19.0957 0.0445956C18.9829 0.0683261 18.767 0.147457 18.6159 0.220465C18.3906 0.329332 18.2978 0.396275 18.1003 0.592418C17.6845 1.00547 17.4965 1.44642 17.4925 2.01815C17.4893 2.47548 17.6121 2.87087 17.868 3.22703C17.9251 3.30651 17.9676 3.37471 17.9625 3.37855C17.9574 3.38242 17.8651 3.42613 17.7575 3.4757C17.1969 3.73398 16.6791 4.24284 16.3936 4.816C16.1891 5.2266 16.0928 5.66869 16.0928 6.19679V6.52987H19.5244H22.9559L22.9408 6.0538C22.9282 5.65609 22.9133 5.53606 22.8502 5.32463C22.7467 4.9781 22.6526 4.77458 22.4671 4.49617C22.1831 4.07005 21.7608 3.70316 21.3077 3.48882C21.1868 3.43167 21.0837 3.38189 21.0786 3.37823C21.0735 3.37454 21.1148 3.30762 21.1704 3.22952C21.423 2.8747 21.5486 2.48254 21.5487 2.04915C21.5488 1.46913 21.3626 1.01646 20.9559 0.608092C20.744 0.395221 20.6605 0.334166 20.4273 0.221666C19.9813 0.00648037 19.5497 -0.0509122 19.0957 0.0445956ZM13.6718 0.880113C13.5612 1.07804 13.4668 1.2489 13.462 1.2598C13.4572 1.27073 13.6145 1.36905 13.8116 1.47836C14.096 1.636 14.1583 1.68144 14.1133 1.69832C14.0822 1.71001 13.9051 1.76822 13.7198 1.82769C13.5345 1.88716 13.1948 2.02609 12.9649 2.13642C11.3516 2.91077 10.1427 4.31462 9.61528 6.02643C9.41351 6.68128 9.2999 7.5499 9.33969 8.13364L9.36057 8.44014L9.46742 8.33813C9.62548 8.18722 9.83047 8.03925 10.0252 7.93548C10.2148 7.83437 10.2334 7.79708 10.2334 7.51846C10.2334 7.31066 10.3127 6.82726 10.4003 6.50057C10.678 5.46513 11.2102 4.58353 12.0082 3.83719C12.4266 3.44582 12.8388 3.16802 13.3829 2.91062C13.8068 2.71006 14.4229 2.50178 14.4229 2.55903C14.4229 2.56905 14.2845 2.74246 14.1153 2.94443C13.9461 3.14637 13.8077 3.32169 13.8077 3.33399C13.8077 3.3463 13.9541 3.47866 14.133 3.62816C14.4481 3.89128 14.4601 3.89819 14.5099 3.84528C14.626 3.72194 16.1563 1.86381 16.1689 1.83086C16.1774 1.80865 15.7641 1.561 15.0757 1.17584C14.4669 0.835172 13.9472 0.548326 13.9208 0.538365C13.8833 0.524215 13.8289 0.598922 13.6718 0.880113ZM21.2784 7.79728C21.2784 9.23134 20.8014 10.5048 19.8657 11.5689C19.4875 11.999 18.9781 12.4063 18.4287 12.7179C18.2011 12.847 17.7066 13.0695 17.6753 13.0569C17.6637 13.0522 17.7773 12.8573 17.9278 12.6236C18.0783 12.39 18.1982 12.1896 18.1945 12.1783C18.186 12.1529 17.503 11.7149 17.4752 11.7169C17.4641 11.7176 17.1302 12.2285 16.7331 12.8521C16.2691 13.5807 16.0231 13.9928 16.0447 14.0053C16.0935 14.0334 18.3851 14.9621 18.4325 14.9729C18.4748 14.9826 18.7994 14.2469 18.7772 14.1914C18.7707 14.175 18.6035 14.0966 18.4057 14.0171C18.0827 13.8872 18.0533 13.8694 18.1168 13.8431C20.0992 13.0218 21.5391 11.3392 21.9937 9.31307C22.1059 8.81312 22.1387 8.50899 22.1407 7.95077L22.1426 7.42343L21.7105 7.41531L21.2784 7.40722V7.79728ZM10.9184 8.52138C10.2381 8.69974 9.70247 9.20758 9.48078 9.88436C9.37282 10.2139 9.36708 10.7188 9.46763 11.0409C9.54881 11.3008 9.64768 11.5044 9.78289 11.69L9.88174 11.8256L9.60869 11.9611C9.05211 12.2374 8.57217 12.7216 8.29886 13.2828C8.08499 13.7219 8.03167 13.9541 8.01447 14.5206L8 14.9967H11.435H14.8701L14.8545 14.5352C14.8375 14.0336 14.7867 13.783 14.6247 13.4022C14.3616 12.7839 13.7852 12.1938 13.1735 11.9164C13.0711 11.87 12.9873 11.8256 12.9873 11.8177C12.9873 11.8099 13.0328 11.7403 13.0882 11.663C13.3592 11.2858 13.4724 10.8839 13.4479 10.3854C13.4204 9.82433 13.2535 9.4549 12.8438 9.04841C12.5551 8.76194 12.2357 8.58144 11.8868 8.50753C11.6052 8.44785 11.1754 8.454 10.9184 8.52138Z" fill="#8000FF"/>
</svg>
