<svg width="30" height="25" viewBox="0 0 30 25" fill="none" xmlns="http://www.w3.org/2000/svg">
<path fill-rule="evenodd" clip-rule="evenodd" d="M13.6912 0.442395C12.09 1.07134 11.1223 1.83925 10.4907 2.98255C10.1627 3.57561 9.85809 3.83542 9.739 3.62336C9.14144 2.55941 5.72846 3.94672 4.79696 5.63204C3.92352 7.21231 4.01867 11.0739 4.98278 13.1863C5.36848 14.0316 5.68417 15.1812 5.68417 15.741C5.68417 16.6847 5.5193 16.8448 3.42201 17.94C1.00395 19.2028 0.00213803 20.4261 4.34355e-05 22.1187C-0.00115347 23.0203 0.0075239 23.0243 2.09344 23.0243H4.18803V24.0121V25H14.9602H25.7324V24.0121V23.0243H27.8662H30L29.8229 21.8246C29.5778 20.1624 28.637 19.1646 26.1065 17.883C23.5519 16.5892 23.4155 16.118 24.8015 13.3747C25.5298 11.9327 25.6711 11.2666 25.6998 9.13768C25.7303 6.87116 25.654 6.50762 24.9583 5.59779C24.5319 5.0403 23.9978 4.5839 23.7713 4.5839C23.5451 4.5839 23.2063 4.26877 23.019 3.8835C22.7201 3.26904 22.4984 3.20647 21.2111 3.37441C19.8972 3.54564 19.6946 3.48341 19.2772 2.78234C19.0204 2.3513 18.4262 1.85144 17.9558 1.67098C17.4857 1.49053 16.9513 1.03479 16.7682 0.658411C16.3798 -0.140451 15.3582 -0.212237 13.6912 0.442395ZM16.0533 1.7971C16.1503 2.07568 16.6895 2.51496 17.2514 2.77312C18.8107 3.49032 19.6473 6.23793 18.8224 7.93379C18.586 8.42015 18.586 8.70565 18.8224 8.96579C19.2535 9.4403 18.9132 10.44 18.4524 10.9764C17.8707 11.6528 16.9336 14.19 16.7613 15.2744C16.6634 15.8892 16.3011 16.4381 15.7831 16.7562C15.0434 17.2106 14.877 17.2106 14.1373 16.7562C13.6194 16.4381 13.257 15.8892 13.1592 15.2744C12.9868 14.19 12.0521 11.6528 11.4704 10.9764C11.0251 10.4581 10.6579 9.3099 11.0589 9.03724C11.2432 8.91178 11.2432 8.54166 11.0589 8.00821C10.1576 5.40021 11.377 2.78498 13.968 1.76812C15.4635 1.181 15.8403 1.18627 16.0533 1.7971ZM9.26024 5.37716C9.47239 5.81315 9.66479 7.20012 9.68783 8.45868C9.71147 9.75675 9.8937 10.9646 10.1091 11.2504C10.7869 12.1487 11.9656 14.9382 11.9668 15.6465C11.9682 16.4282 11.3632 17.1003 9.94816 17.8889L8.97567 18.431V17.4348C8.97567 16.6146 8.85389 16.4384 8.28745 16.4384C7.47714 16.4384 6.88108 15.8701 6.88108 15.0972C6.88108 14.7943 6.58455 13.8238 6.22188 12.9403C5.37387 10.8734 5.18296 7.44182 5.85383 6.31532C6.2913 5.58067 7.78774 4.62737 8.55107 4.59674C8.72911 4.58983 9.04809 4.94085 9.26024 5.37716ZM22.1417 4.90891C22.1417 5.08739 22.6082 5.44829 23.1782 5.71041C24.3718 6.25901 24.5846 6.90475 24.4335 9.52328C24.3299 11.3209 23.6268 13.5693 23.0439 13.9658C22.8769 14.0794 22.7401 14.6118 22.7401 15.1489C22.7401 15.9708 22.5977 16.1569 21.8425 16.3232C21.0926 16.4881 20.9448 16.6781 20.9448 17.476V18.431L19.9723 17.8889C18.5572 17.1003 17.9522 16.4282 17.9537 15.6465C17.9549 14.9694 18.8577 12.7951 19.8122 11.1697C20.1704 10.5596 20.2829 9.64512 20.2461 7.63808C20.2066 5.4776 20.2877 4.902 20.6455 4.79498C21.5043 4.53747 22.1417 4.58588 22.1417 4.90891ZM7.72999 18.214C7.89786 19.1732 7.10251 19.5061 6.68658 18.6509C6.49328 18.2535 6.40321 17.8073 6.4864 17.6591C6.75092 17.1879 7.61808 17.5748 7.72999 18.214ZM14.0937 20.3863C14.0518 21.5174 13.9096 22.7588 13.7777 23.1451C13.5748 23.7401 13.4653 23.5791 13.0616 22.0927C11.9796 18.1115 12.0565 17.1112 13.386 17.8777C14.1191 18.3006 14.1649 18.4632 14.0937 20.3863ZM17.5432 19.0319C17.4471 19.6882 17.1467 21.0403 16.8753 22.0364C16.4594 23.5643 16.3447 23.7378 16.1428 23.1451C16.0108 22.7588 15.8687 21.5187 15.8271 20.3893C15.7574 18.513 15.813 18.2989 16.4737 17.91C17.4642 17.3265 17.749 17.6252 17.5432 19.0319ZM23.221 17.9472C23.1211 18.2337 23.0394 18.6042 23.0394 18.7705C23.0394 18.9368 22.8374 19.0727 22.5905 19.0727C22.1417 19.0727 21.9648 18.0602 22.3413 17.6459C22.7473 17.1991 23.4035 17.4237 23.221 17.9472ZM26.9192 19.7257C27.5831 20.0985 28.1262 20.4624 28.1262 20.5345C28.1262 20.6063 28.2079 20.8997 28.3079 21.1861C28.4599 21.6218 28.2232 21.7071 26.8638 21.7071C24.8865 21.7071 23.7716 20.7363 24.0992 19.3003C24.3138 18.3592 24.5487 18.3947 26.9192 19.7257ZM5.69913 19.433C5.97681 20.0037 5.91787 20.2595 5.35831 20.9148C4.79128 21.5793 4.3954 21.7071 2.90255 21.7071C1.12544 21.7071 1.12334 21.7061 1.5647 20.9662C2.0707 20.1182 4.08809 18.757 4.85082 18.7487C5.13299 18.7458 5.51481 19.0536 5.69913 19.433ZM11.6277 21.4601L12.1867 23.6828H8.79524C5.09738 23.6828 5.11235 23.694 6.22218 21.7858C6.65427 21.0429 10.8545 18.6091 10.9946 19.0204C11.0353 19.1399 11.3201 20.2374 11.6277 21.4601ZM23.3452 21.4357C23.7922 21.9277 24.2303 22.6347 24.3189 23.0065C24.4739 23.6598 24.3623 23.6828 21.0342 23.6828C17.8711 23.6828 17.6069 23.6357 17.8032 23.1066C18.0306 22.4944 18.3774 21.1239 18.6715 19.6737L18.8502 18.7928L20.6913 19.6671C21.7039 20.1479 22.8981 20.9438 23.3452 21.4357Z" fill="white"/>
</svg>
