<svg width="22" height="18" viewBox="0 0 22 18" fill="none" xmlns="http://www.w3.org/2000/svg">
<path fill-rule="evenodd" clip-rule="evenodd" d="M10.0402 0.318525C8.86602 0.771367 8.15638 1.32426 7.69315 2.14744C7.45265 2.57444 7.22927 2.7615 7.14193 2.60882C6.70373 1.84278 4.20087 2.84164 3.51777 4.05507C2.87724 5.19286 2.94702 7.97322 3.65404 9.49415C3.93689 10.1028 4.16839 10.9304 4.16839 11.3335C4.16839 12.013 4.04748 12.1282 2.50947 12.9168C0.736231 13.826 0.00156789 14.7068 3.18527e-05 15.9255C-0.000845881 16.5746 0.00551753 16.5775 1.53519 16.5775H3.07122V17.2887V18H10.9708H18.8704V17.2887V16.5775H20.4352H22L21.8701 15.7137C21.6904 14.5169 21.0005 13.7985 19.1447 12.8758C17.2714 11.9442 17.1714 11.605 18.1878 9.62977C18.7219 8.59155 18.8255 8.11192 18.8465 6.57913C18.8689 4.94724 18.8129 4.68549 18.3028 4.03041C17.9901 3.62901 17.5984 3.30041 17.4323 3.30041C17.2664 3.30041 17.018 3.07351 16.8806 2.79612C16.6614 2.35371 16.4988 2.30866 15.5548 2.42958C14.5913 2.55286 14.4427 2.50805 14.1366 2.00329C13.9483 1.69294 13.5125 1.33303 13.1676 1.20311C12.8228 1.07318 12.4309 0.74505 12.2966 0.474056C12.0118 -0.101125 11.2627 -0.152811 10.0402 0.318525ZM11.7724 1.29391C11.8435 1.49449 12.2389 1.81077 12.651 1.99665C13.7945 2.51303 14.408 4.49131 13.8031 5.71233C13.6297 6.06251 13.6297 6.26807 13.8031 6.45537C14.1193 6.79701 13.8697 7.51679 13.5317 7.90301C13.1052 8.38999 12.418 10.2168 12.2916 10.9975C12.2198 11.4402 11.9541 11.8354 11.5743 12.0644C11.0318 12.3916 10.9098 12.3916 10.3674 12.0644C9.98755 11.8354 9.72181 11.4402 9.65006 10.9975C9.52367 10.2168 8.8382 8.38999 8.41162 7.90301C8.0851 7.52983 7.81582 6.70313 8.10986 6.50682C8.24503 6.41648 8.24503 6.14999 8.10986 5.76591C7.44892 3.88815 8.34311 2.00518 10.2432 1.27305C11.3399 0.850318 11.6162 0.854111 11.7724 1.29391ZM6.79084 3.87156C6.94642 4.18547 7.08752 5.18409 7.10441 6.09025C7.12175 7.02486 7.25538 7.8945 7.41337 8.1003C7.91039 8.74708 8.77474 10.7555 8.77562 11.2655C8.77671 11.8283 8.33302 12.3122 7.29532 12.88L6.58216 13.2703V12.5531C6.58216 11.9625 6.49285 11.8357 6.07746 11.8357C5.48324 11.8357 5.04613 11.4264 5.04613 10.87C5.04613 10.6519 4.82867 9.95316 4.56271 9.31705C3.94084 7.82883 3.80084 5.35811 4.29281 4.54703C4.61362 4.01808 5.71101 3.3317 6.27078 3.30965C6.40135 3.30468 6.63526 3.55741 6.79084 3.87156ZM16.2372 3.53442C16.2372 3.66292 16.5793 3.92277 16.9974 4.11149C17.8727 4.50649 18.0287 4.97142 17.9179 6.85676C17.842 8.15104 17.3263 9.76989 16.8988 10.0553C16.7764 10.1371 16.6761 10.5205 16.6761 10.9072C16.6761 11.499 16.5717 11.6329 16.0178 11.7527C15.4679 11.8715 15.3595 12.0083 15.3595 12.5827V13.2703L14.6463 12.88C13.6086 12.3122 13.1649 11.8283 13.166 11.2655C13.1669 10.778 13.829 9.21249 14.5289 8.04221C14.7916 7.60288 14.8741 6.94448 14.8471 5.49942C14.8182 3.94387 14.8776 3.52944 15.1401 3.45238C15.7698 3.26698 16.2372 3.30183 16.2372 3.53442ZM5.66866 13.114C5.79176 13.8047 5.20851 14.0444 4.90349 13.4287C4.76174 13.1425 4.69569 12.8212 4.75669 12.7145C4.95067 12.3753 5.58659 12.6539 5.66866 13.114ZM10.3354 14.6781C10.3046 15.4925 10.2004 16.3864 10.1036 16.6645C9.95485 17.0929 9.87454 16.977 9.57852 15.9067C8.78505 13.0403 8.84145 12.32 9.81639 12.872C10.354 13.1764 10.3876 13.2935 10.3354 14.6781ZM12.865 13.703C12.7945 14.1755 12.5742 15.149 12.3752 15.8662C12.0702 16.9663 11.9861 17.0912 11.838 16.6645C11.7413 16.3864 11.637 15.4935 11.6065 14.6803C11.5554 13.3293 11.5962 13.1752 12.0807 12.8952C12.807 12.4751 13.016 12.6901 12.865 13.703ZM17.0287 12.922C16.9554 13.1283 16.8955 13.395 16.8955 13.5147C16.8955 13.6345 16.7474 13.7324 16.5664 13.7324C16.2372 13.7324 16.1075 13.0033 16.3836 12.7051C16.6814 12.3833 17.1626 12.545 17.0287 12.922ZM19.7407 14.2025C20.2276 14.4709 20.6259 14.7329 20.6259 14.7848C20.6259 14.8365 20.6858 15.0478 20.7591 15.254C20.8706 15.5677 20.697 15.6291 19.7001 15.6291C18.2501 15.6291 17.4325 14.9302 17.6728 13.8962C17.8301 13.2186 18.0024 13.2442 19.7407 14.2025ZM4.17936 13.9918C4.383 14.4026 4.33977 14.5869 3.92943 15.0587C3.5136 15.5371 3.22329 15.6291 2.12854 15.6291C0.825321 15.6291 0.823785 15.6284 1.14745 15.0956C1.51851 14.4851 2.99793 13.505 3.55727 13.4991C3.76419 13.4969 4.04419 13.7186 4.17936 13.9918ZM8.527 15.4513L8.9369 17.0516H6.44984C3.73808 17.0516 3.74905 17.0597 4.56293 15.6858C4.8798 15.1509 7.95998 13.3986 8.06268 13.6947C8.09252 13.7807 8.30142 14.571 8.527 15.4513ZM17.1198 15.4337C17.4476 15.7879 17.7689 16.297 17.8338 16.5647C17.9475 17.035 17.8657 17.0516 15.4251 17.0516C13.1055 17.0516 12.9117 17.0177 13.0557 16.6367C13.2224 16.196 13.4768 15.2092 13.6925 14.1651L13.8235 13.5309L15.1736 14.1603C15.9162 14.5065 16.792 15.0795 17.1198 15.4337Z" fill="white"/>
</svg>
