<svg width="20" height="20" viewBox="0 0 20 20" fill="none" xmlns="http://www.w3.org/2000/svg">
<path d="M18.3333 12.5C18.3333 15.725 15.725 18.3333 12.5 18.3333L13.375 16.875" stroke="white" stroke-linecap="round" stroke-linejoin="round"/>
<path d="M1.66663 7.50008C1.66663 4.27508 4.27496 1.66675 7.49996 1.66675L6.62496 3.12508" stroke="white" stroke-linecap="round" stroke-linejoin="round"/>
<path d="M11.4166 3.7085L14.7333 5.62515L18.0166 3.71684" stroke="white" stroke-linecap="round" stroke-linejoin="round"/>
<path d="M14.7333 9.01671V5.6167" stroke="white" stroke-linecap="round" stroke-linejoin="round"/>
<path d="M13.95 1.84175L11.95 2.95004C11.5 3.20004 11.125 3.83337 11.125 4.35004V6.46674C11.125 6.9834 11.4917 7.61673 11.95 7.86673L13.95 8.97508C14.375 9.21675 15.075 9.21675 15.5083 8.97508L17.5083 7.86673C17.9583 7.61673 18.3333 6.9834 18.3333 6.46674V4.35004C18.3333 3.83337 17.9667 3.20004 17.5083 2.95004L15.5083 1.84175C15.0833 1.60841 14.3833 1.60841 13.95 1.84175Z" stroke="white" stroke-linecap="round" stroke-linejoin="round"/>
<path d="M1.95825 12.875L5.26659 14.7917L8.55825 12.8833" stroke="white" stroke-linecap="round" stroke-linejoin="round"/>
<path d="M5.2666 18.1832V14.7832" stroke="white" stroke-linecap="round" stroke-linejoin="round"/>
<path d="M4.49163 11.0083L2.49163 12.1165C2.04163 12.3665 1.66663 12.9999 1.66663 13.5165V15.6332C1.66663 16.1499 2.0333 16.7832 2.49163 17.0332L4.49163 18.1416C4.91663 18.3832 5.61662 18.3832 6.04995 18.1416L8.04996 17.0332C8.49996 16.7832 8.87495 16.1499 8.87495 15.6332V13.5165C8.87495 12.9999 8.5083 12.3665 8.04996 12.1165L6.04995 11.0083C5.61662 10.7749 4.91663 10.7749 4.49163 11.0083Z" stroke="white" stroke-linecap="round" stroke-linejoin="round"/>
</svg>
