<svg width="35" height="27" viewBox="0 0 35 27" fill="none" xmlns="http://www.w3.org/2000/svg">
<path fill-rule="evenodd" clip-rule="evenodd" d="M7.76253 0.0810088C8.45131 0.328661 8.84919 0.663711 9.18638 1.28028C9.3499 1.57927 9.3719 1.69423 9.37218 2.25037C9.37245 2.80571 9.34963 2.92618 9.18148 3.25598C8.46201 4.66665 6.55089 4.97201 5.38271 3.86299C4.23246 2.77097 4.55426 0.89974 6.01032 0.213767C6.46965 -0.00260429 7.34541 -0.0690167 7.76253 0.0810088ZM7.50183 5.07768C8.1582 5.28017 8.60636 5.64949 8.86602 6.2019C9.00658 6.50103 9.02582 6.66838 9.05934 7.88951L9.09665 9.24505L11.2347 10.6907C12.7309 11.7025 13.3794 12.1783 13.395 12.2759C13.462 12.695 11.8248 13.4713 11.2681 13.2844C11.1587 13.2477 10.6565 12.9368 10.1519 12.5935C9.64743 12.2502 9.19403 11.9464 9.14445 11.9185C9.07072 11.8769 9.06072 12.2703 9.08962 14.0821C9.10907 15.3001 9.14672 18.6914 9.17334 21.6184L9.22169 26.9402L9.07886 26.9839C8.64801 27.1156 7.37603 26.4136 7.09409 25.8886C7.00836 25.7289 6.9845 25.0207 6.9467 21.5121C6.90387 17.5407 6.89518 17.326 6.77732 17.326C6.70904 17.326 6.61669 17.3932 6.57221 17.4754C6.52772 17.5576 5.75603 18.7605 4.85738 20.1485C3.95872 21.5365 2.80964 23.3147 2.30383 24.1C1.30862 25.6453 1.22427 25.7603 1.08792 25.7603C0.94067 25.7603 0.523342 25.3162 0.335957 24.9601C0.082428 24.4784 -0.0548859 23.9111 0.0207024 23.6574C0.0547752 23.5429 1.11288 21.8604 2.37197 19.9185L4.66116 16.3878L4.6144 13.5529C4.58861 11.9937 4.55854 10.7092 4.54757 10.6986C4.53661 10.688 3.91417 11.6294 3.16442 12.7906C2.41473 13.9518 1.74463 14.9598 1.67539 15.0306C1.56497 15.1434 1.52849 15.1485 1.38 15.0719C0.954876 14.8529 0.444653 13.8732 0.444031 13.2748C0.443687 12.9111 0.452236 12.8963 2.44735 9.82138C3.54939 8.12288 4.5573 6.51982 4.6871 6.25895C4.95393 5.723 5.26057 5.42886 5.80093 5.19064C6.27461 4.98184 7.02884 4.93177 7.50183 5.07768ZM24.881 7.16967C24.9809 7.24531 25.5748 8.01197 26.2007 8.87327C27.1913 10.2363 27.3388 10.4722 27.3388 10.6938C27.3388 10.8805 27.2883 10.9995 27.1491 11.1407C26.9752 11.3172 22.1203 14.6149 21.7741 14.7917C21.5718 14.8951 21.3717 14.8886 21.1357 14.7712C20.9678 14.6875 19.93 13.3305 18.8053 11.7241C18.5581 11.371 18.5281 11.1729 18.6789 10.892C18.765 10.7317 20.8254 9.29552 23.6687 7.41393C24.3109 6.98896 24.5728 6.93616 24.881 7.16967ZM21.8756 9.362C20.4612 10.3148 19.278 11.1183 19.2463 11.1476C19.2017 11.1888 21.1548 13.9741 21.4052 14.2265C21.4804 14.3023 26.7348 10.7563 26.6951 10.6566C26.6317 10.4975 24.5289 7.62977 24.4757 7.62977C24.4601 7.62977 23.29 8.40932 21.8756 9.362ZM25.6619 10.1722C25.7748 10.3262 25.8883 10.4872 25.9139 10.5299C25.943 10.5783 25.7074 10.7766 25.2876 11.0568C24.9174 11.3038 24.5178 11.5757 24.3995 11.661L24.1846 11.816L23.9225 11.4496C23.7784 11.248 23.6734 11.0736 23.6892 11.0618C23.7733 10.9994 25.3158 9.9716 25.3803 9.93508C25.4228 9.91103 25.547 10.0156 25.6619 10.1722ZM29.4744 10.6681C29.5881 10.7685 30.6901 12.2404 31.9231 13.9389C34.4051 17.3575 34.3757 17.3033 33.9769 17.7226C33.8726 17.8324 32.4381 18.8304 30.7892 19.9405L27.791 21.9588L27.4949 21.8203C27.3321 21.7441 27.207 21.6598 27.217 21.633C27.2271 21.6062 28.6164 20.6544 30.3044 19.5179C31.9924 18.3815 33.4165 17.4107 33.4691 17.3608C33.5502 17.2837 33.2302 16.8099 31.3395 14.2085C30.1158 12.5247 29.0897 11.1324 29.0595 11.1144C28.9983 11.078 22.214 15.627 22.1791 15.7279C22.167 15.763 22.8169 16.6972 23.6233 17.804C24.4297 18.9108 25.3601 20.19 25.6907 20.6466L26.2919 21.4767L25.9705 21.5131C25.6979 21.5439 25.6263 21.5266 25.499 21.3988C25.4164 21.316 24.4931 20.07 23.4472 18.6298C21.7187 16.25 21.5454 15.9868 21.5454 15.7426C21.5454 15.5571 21.5935 15.4227 21.7006 15.3086C21.8443 15.1556 28.3593 10.7359 28.6963 10.5629C28.9542 10.4304 29.2508 10.4706 29.4744 10.6681ZM17.4635 11.7675C17.5582 11.8093 19.0918 13.8575 21.2364 16.8066L24.8497 21.7753L24.6286 21.8833C24.5071 21.9428 24.274 22.0956 24.1107 22.223C23.9474 22.3503 23.7923 22.4347 23.7659 22.4105C23.7395 22.3863 22.1801 20.2536 20.3006 17.6712L16.8832 12.976H15.5073C13.9848 12.976 13.8802 12.9517 13.7484 12.5671C13.6495 12.2785 13.8027 11.9288 14.0711 11.8303C14.3449 11.7297 17.2556 11.6759 17.4635 11.7675ZM32.1958 16.7392L32.4357 17.0822L31.8033 17.5116C30.6864 18.27 30.6427 18.294 30.5781 18.1859C30.5465 18.133 30.4409 17.9868 30.3436 17.861C30.2461 17.7351 30.1665 17.6121 30.1665 17.5876C30.1665 17.5406 31.847 16.3962 31.916 16.3962C31.938 16.3962 32.0639 16.5505 32.1958 16.7392ZM34.8117 18.485C35.0148 18.6662 35.064 19.069 34.908 19.2728C34.8606 19.3347 33.5198 20.2633 31.9285 21.3362L29.0352 23.2869L28.8352 22.9795C28.7252 22.8105 28.5547 22.5898 28.4565 22.4891C28.3489 22.379 28.3036 22.2838 28.3427 22.2503C28.4065 22.1956 33.3898 18.8404 33.9176 18.4968C34.2596 18.2741 34.5708 18.27 34.8117 18.485ZM26.6331 22.1747C27.0707 22.2628 27.7302 22.6266 28.0078 22.9332C28.1424 23.0818 28.334 23.3678 28.4336 23.5687C28.5901 23.8845 28.6145 24.0195 28.6134 24.5649C28.6123 25.1066 28.5863 25.2493 28.4293 25.5741C27.5328 27.4284 24.7835 27.438 23.8517 25.5902C23.6756 25.2411 23.6527 25.1234 23.6516 24.5649C23.6505 24.0205 23.6751 23.8839 23.8308 23.5687C24.1056 23.0121 24.4508 22.6744 25.0148 22.4104C25.5603 22.155 26.1257 22.0727 26.6331 22.1747ZM25.4975 23.6538C24.6936 24.1829 24.9079 25.3738 25.8511 25.6193C26.8089 25.8686 27.6081 24.8638 27.1188 24.0255C26.7867 23.4564 26.053 23.2882 25.4975 23.6538Z" fill="white"/>
</svg>
