<svg width="20" height="20" viewBox="0 0 20 20" fill="none" xmlns="http://www.w3.org/2000/svg">
<path d="M2.08337 11.0332V9.59159C2.08337 7.86659 3.4917 6.45825 5.2167 6.45825H14.7834C16.5084 6.45825 17.9167 7.86659 17.9167 9.59159V10.7916H16.2334C15.7667 10.7916 15.3417 10.9749 15.0334 11.2916C14.6834 11.6332 14.4834 12.1249 14.5334 12.6499C14.6084 13.5499 15.4334 14.2082 16.3334 14.2082H17.9167V15.1999C17.9167 16.9249 16.5084 18.3333 14.7834 18.3333H10.2167" stroke="white" stroke-linecap="round" stroke-linejoin="round"/>
<path d="M2.08337 10.3416V6.5333C2.08337 5.54163 2.6917 4.65826 3.6167 4.30826L10.2334 1.80826C11.2667 1.41659 12.375 2.18329 12.375 3.29162V6.45828" stroke="white" stroke-linecap="round" stroke-linejoin="round"/>
<path d="M18.799 11.6417V13.3584C18.799 13.8168 18.4324 14.1917 17.9657 14.2084H16.3324C15.4324 14.2084 14.6074 13.5501 14.5324 12.6501C14.4824 12.1251 14.6824 11.6334 15.0324 11.2917C15.3407 10.9751 15.7657 10.7917 16.2324 10.7917H17.9657C18.4324 10.8084 18.799 11.1834 18.799 11.6417Z" stroke="white" stroke-linecap="round" stroke-linejoin="round"/>
<path d="M5.83337 10H11.6667" stroke="white" stroke-linecap="round" stroke-linejoin="round"/>
<path d="M2.5 13.75H6.95C7.48333 13.75 7.91667 14.1833 7.91667 14.7166V15.7833" stroke="white" stroke-miterlimit="10" stroke-linecap="round" stroke-linejoin="round"/>
<path d="M3.51667 12.7334L2.5 13.75L3.51667 14.7667" stroke="white" stroke-miterlimit="10" stroke-linecap="round" stroke-linejoin="round"/>
<path d="M7.91667 18.15H3.46667C2.93334 18.15 2.5 17.7167 2.5 17.1833V16.1167" stroke="white" stroke-miterlimit="10" stroke-linecap="round" stroke-linejoin="round"/>
<path d="M6.901 19.1669L7.91767 18.1502L6.901 17.1335" stroke="white" stroke-miterlimit="10" stroke-linecap="round" stroke-linejoin="round"/>
</svg>
