<svg width="15" height="15" viewBox="0 0 15 15" fill="none" xmlns="http://www.w3.org/2000/svg">
<path fill-rule="evenodd" clip-rule="evenodd" d="M2.91734 0.0195894C2.40049 0.101437 2.1313 0.185484 1.74454 0.385748C1.18028 0.677889 0.663101 1.19516 0.371015 1.75953C0.204742 2.08076 0.128422 2.29252 0.0533917 2.64067C0.00301996 2.87455 0 3.14974 0 7.50733C0 11.8649 0.00301996 12.1401 0.0533917 12.374C0.217496 13.1355 0.619561 13.7991 1.20332 14.2719C1.61861 14.6083 2.08706 14.8305 2.62552 14.9466C2.85935 14.997 3.13449 15 7.49126 15C11.848 15 12.1232 14.997 12.357 14.9466C12.7051 14.8716 12.9168 14.7952 13.238 14.6289C14.0835 14.1911 14.6943 13.3866 14.9266 12.4047C14.9729 12.2089 14.9798 11.9794 14.9893 10.3152L15 8.44575H14.5307H14.0614L14.0519 10.2859C14.0417 12.266 14.0482 12.1765 13.8836 12.6165C13.6892 13.1362 13.1192 13.7062 12.599 13.9011C12.1406 14.0728 12.4987 14.0616 7.49126 14.0616C2.48384 14.0616 2.84193 14.0728 2.38351 13.9011C1.8632 13.7061 1.29363 13.1365 1.09874 12.616C0.926981 12.1575 0.93824 12.5157 0.93824 7.50733C0.93824 2.49897 0.926981 2.85713 1.09874 2.39862C1.2936 1.87836 1.86349 1.30827 2.38307 1.11384C2.81783 0.951144 2.75717 0.956012 4.47863 0.945455L6.0839 0.935631V0.467801V0L4.53727 0.00398827C3.68661 0.00618768 2.95766 0.0131965 2.91734 0.0195894ZM10.2911 0.938592L9.96942 1.26138L11.2136 2.50601L12.4577 3.75065L10.7148 3.76003C9.01156 3.76918 8.96492 3.77097 8.66406 3.83812C7.73981 4.04443 7.00986 4.41636 6.4358 4.97352C5.69849 5.68909 5.28959 6.61153 5.17613 7.81525C5.15853 8.00194 5.14569 8.99325 5.14569 10.1686L5.14566 12.1994H5.61478H6.0839L6.08414 10.1686C6.08428 9.00548 6.09698 8.02507 6.11384 7.8739C6.22179 6.90633 6.52215 6.21856 7.08078 5.65982C7.52665 5.21387 8.06353 4.93053 8.78134 4.76238C8.97494 4.71701 9.20821 4.70959 10.7311 4.70041L12.461 4.68994L11.2221 5.93032L9.98311 7.1707L10.3137 7.50035L10.6442 7.83003L12.3348 6.13642C14.1684 4.29944 14.095 4.38625 14.0456 4.1129C14.028 4.01589 13.8263 3.8032 12.3348 2.30938C11.4048 1.37792 10.6369 0.615836 10.6284 0.615836C10.6198 0.615836 10.4681 0.761085 10.2911 0.938592Z" fill="white"/>
</svg>
