<svg width="27" height="26" viewBox="0 0 27 26" fill="none" xmlns="http://www.w3.org/2000/svg">
<path fill-rule="evenodd" clip-rule="evenodd" d="M2.11792 1.75243L0 3.50455L0.0844854 14.7524L0.16865 26H13.5H26.8314L26.9155 14.7353L27 3.47061L24.8895 1.73531L22.7793 0H13.5074H4.23551L2.11792 1.75243ZM12.8575 2.17964V3.11377H7.64962H2.44173L3.55385 2.19241C4.65762 1.27758 4.69617 1.27073 8.76175 1.25828L12.8575 1.24551V2.17964ZM23.4461 2.19241L24.5583 3.11377H19.3504H14.1425V2.17964V1.24551L18.2383 1.25828C22.3038 1.27073 22.3424 1.27758 23.4461 2.19241ZM25.707 14.6347V24.9102H13.5H1.29298V14.6347V4.35928H13.5H25.707V14.6347ZM10.1498 7.33947C9.87227 7.60881 9.64515 8.08927 9.64515 8.40719C9.64515 9.62187 10.4929 9.96407 13.5 9.96407C16.5071 9.96407 17.3548 9.62187 17.3548 8.40719C17.3548 7.1925 16.5071 6.8503 13.5 6.8503C11.3416 6.8503 10.5327 6.96831 10.1498 7.33947ZM16.0699 8.40719C16.0699 8.58872 14.9992 8.71856 13.5 8.71856C12.0008 8.71856 10.9301 8.58872 10.9301 8.40719C10.9301 8.22565 12.0008 8.09581 13.5 8.09581C14.9992 8.09581 16.0699 8.22565 16.0699 8.40719ZM16.2305 17.7485C15.3455 18.644 15.3362 18.6826 16.0098 18.6826C16.6154 18.6826 16.7124 18.8548 16.7124 19.9281C16.7124 20.966 16.8193 21.1737 17.3548 21.1737C17.8904 21.1737 17.9973 20.966 17.9973 19.9281C17.9973 18.8548 18.0943 18.6826 18.6999 18.6826C19.3735 18.6826 19.3642 18.644 18.4792 17.7485C17.9713 17.2347 17.4654 16.8144 17.3548 16.8144C17.2443 16.8144 16.7384 17.2347 16.2305 17.7485ZM20.7278 17.7485C19.8428 18.644 19.8335 18.6826 20.5072 18.6826C21.1127 18.6826 21.2097 18.8548 21.2097 19.9281C21.2097 20.966 21.3167 21.1737 21.8522 21.1737C22.3877 21.1737 22.4946 20.966 22.4946 19.9281C22.4946 18.8548 22.5917 18.6826 23.1972 18.6826C23.8708 18.6826 23.8615 18.644 22.9765 17.7485C22.4686 17.2347 21.9627 16.8144 21.8522 16.8144C21.7417 16.8144 21.2357 17.2347 20.7278 17.7485ZM15.4274 22.4192C15.4274 23.0098 15.6417 23.0419 19.6035 23.0419C23.5653 23.0419 23.7796 23.0098 23.7796 22.4192C23.7796 21.8285 23.5653 21.7964 19.6035 21.7964C15.6417 21.7964 15.4274 21.8285 15.4274 22.4192Z" fill="white"/>
</svg>
