<svg width="10" height="10" viewBox="0 0 10 10" fill="none" xmlns="http://www.w3.org/2000/svg">
<path d="M5.00016 9.16666C7.29183 9.16666 9.16683 7.29166 9.16683 5C9.16683 2.70833 7.29183 0.833328 5.00016 0.833328C2.7085 0.833328 0.833496 2.70833 0.833496 5C0.833496 7.29166 2.7085 9.16666 5.00016 9.16666Z" stroke="#8D8E90" stroke-opacity="0.6" stroke-linecap="round" stroke-linejoin="round"/>
<path d="M4.656 6.232L4.496 4.936L4.536 4.896C5.52267 4.85867 6.016 4.55467 6.016 3.984C6.016 3.75467 5.93333 3.57067 5.768 3.432C5.60267 3.29333 5.37867 3.224 5.096 3.224C4.62133 3.224 4.18667 3.43467 3.792 3.856L3.192 3.216C3.71467 2.624 4.35733 2.328 5.12 2.328C5.68533 2.328 6.13867 2.47733 6.48 2.776C6.82133 3.06933 6.992 3.46667 6.992 3.968C6.992 4.44267 6.84533 4.81067 6.552 5.072C6.25867 5.328 5.86933 5.49867 5.384 5.584L5.304 6.232H4.656ZM4.424 8V6.904H5.496V8H4.424Z" fill="#8D8E90" fill-opacity="0.6"/>
</svg>
