<svg width="31" height="31" viewBox="0 0 31 31" fill="none" xmlns="http://www.w3.org/2000/svg">
<path fill-rule="evenodd" clip-rule="evenodd" d="M14.426 1.55068C11.8576 2.75523 11.0889 3.16765 10.9826 3.398C10.8909 3.59685 10.8458 4.95726 10.8458 7.52764V11.3608L7.69794 12.845C5.96657 13.6613 4.42639 14.4632 4.27505 14.627C4.00098 14.9236 4 14.9402 4 19.0621C4 23.1981 4.00012 23.1997 4.27505 23.4506C4.42639 23.5886 5.87916 24.4441 7.50357 25.3517C10.3285 26.93 10.4756 26.9968 10.8862 26.8847C11.3997 26.7448 16.9087 23.7965 17.2759 23.4652C17.5018 23.2614 17.5508 23.2554 17.6848 23.4148C17.909 23.6817 23.7903 26.8862 24.2394 26.9861C24.578 27.0616 24.9967 26.8704 27.7893 25.3652L30.9552 23.6586L30.9874 19.424C31.0179 15.3914 31.0082 15.1753 30.783 14.8993C30.6529 14.7398 29.1405 13.9031 27.4221 13.0399L24.2977 11.4704L24.2953 7.36381L24.2928 3.25723L23.5899 2.93415C23.2034 2.75655 21.7272 2.02359 20.3098 1.3056L17.7326 0L14.426 1.55068ZM18.4042 1.67371C18.8129 1.88499 18.8965 1.97566 18.771 2.07176C18.6816 2.14022 17.6796 2.67252 16.5443 3.25457L14.4801 4.31291L13.8826 4.03643C13.554 3.88443 13.3001 3.71927 13.3184 3.66953C13.3488 3.58731 17.6703 1.40798 17.8138 1.40254C17.8474 1.40122 18.1132 1.52328 18.4042 1.67371ZM22.0884 3.67943C22.0862 3.71468 21.0852 4.27995 19.864 4.9354L17.6437 6.12739L16.7231 5.67754C15.816 5.23422 15.807 5.22528 16.1053 5.06422C16.2718 4.97428 17.2881 4.41927 18.3639 3.83083L20.3198 2.7609L21.2061 3.18817C21.6936 3.42311 22.0906 3.64417 22.0884 3.67943ZM23.0702 8.05971L23.0701 11.3497L21.7561 12.0425C21.0334 12.4237 19.9882 12.9776 19.4335 13.2735L18.425 13.8117L18.4258 10.5282L18.4265 7.24477L20.7179 6.01958C21.9781 5.34577 23.0231 4.78884 23.0398 4.78207C23.0565 4.77531 23.0704 6.25018 23.0702 8.05971ZM13.4129 6.34761V7.15289L14.1545 7.47041C14.5623 7.64511 14.9199 7.78806 14.9491 7.78806C14.9783 7.78806 15.0021 7.48925 15.0021 7.12415V6.46025L15.9778 6.97324L16.9533 7.48623L16.9557 10.7164L16.9581 13.9466L15.8884 13.3758C15.3002 13.0619 14.2412 12.4958 13.5352 12.1178L12.2516 11.4305L12.2188 8.37385C12.2009 6.69266 12.213 5.24822 12.2457 5.16395C12.2905 5.04877 12.4427 5.07666 12.859 5.27647L13.4129 5.54232V6.34761ZM11.3901 12.999C11.5614 13.076 11.7015 13.1772 11.7015 13.2239C11.7015 13.2706 10.6976 13.8276 9.4705 14.4615L7.23952 15.6144L6.87486 15.3897C6.67425 15.2662 6.49467 15.1189 6.4756 15.0625C6.44137 14.961 10.6482 12.8909 10.9317 12.8698C11.0126 12.8638 11.2189 12.9218 11.3901 12.999ZM25.0188 13.2814C25.0053 13.3478 24.0318 13.8976 22.8556 14.5032L20.7169 15.6043L20.2433 15.4205C19.9828 15.3194 19.7697 15.2017 19.7697 15.159C19.7697 15.1161 20.8012 14.5893 22.0618 13.9881C24.1403 12.9972 24.3861 12.9076 24.6987 13.028C24.8884 13.1009 25.0324 13.215 25.0188 13.2814ZM14.4497 14.575C14.888 14.7885 15.2466 14.996 15.2466 15.0362C15.2466 15.1259 10.9557 17.4792 10.784 17.4837C10.5559 17.4896 9.0133 16.552 9.10474 16.463C9.26697 16.3051 13.3473 14.1986 13.5023 14.1927C13.5851 14.1894 14.0115 14.3616 14.4497 14.575ZM27.8968 14.575C28.335 14.7885 28.6937 14.9991 28.6937 15.0432C28.6937 15.0872 27.9647 15.5178 27.0739 15.9999C26.1831 16.4821 25.1791 17.0279 24.8429 17.2129L24.2317 17.5492L23.3311 17.029L22.4305 16.5089L23.4534 15.9684C24.0159 15.6711 24.9988 15.1509 25.6375 14.8124C26.2763 14.4738 26.8666 14.1946 26.9493 14.1918C27.0321 14.1892 27.4585 14.3616 27.8968 14.575ZM6.08307 16.6039C6.56533 16.8469 6.56716 16.8506 6.56716 17.5681V18.2882L7.29709 18.6522C7.69867 18.8524 8.05624 19.0161 8.09169 19.0161C8.12727 19.0161 8.15636 18.7445 8.15636 18.4125C8.15636 18.0805 8.19083 17.8088 8.23301 17.8088C8.27518 17.8088 8.71527 18.03 9.21098 18.3002L10.1123 18.7916V21.9825C10.1123 23.7376 10.0954 25.1735 10.0749 25.1735C10.0143 25.1735 5.92097 23.0001 5.61976 22.808C5.34617 22.6334 5.34471 22.6162 5.34471 19.4963C5.34471 17.4058 5.38712 16.36 5.47184 16.36C5.54177 16.36 5.81682 16.4698 6.08307 16.6039ZM16.2246 19.5506V22.7412L13.9325 23.9536L11.6404 25.166L11.6077 22.0086C11.5889 20.1898 11.623 18.8039 11.688 18.7397C11.8263 18.6031 16.0047 16.3702 16.1329 16.3643C16.1833 16.362 16.2246 17.7958 16.2246 19.5506ZM19.5301 16.6039C20.0124 16.8469 20.0142 16.8506 20.0142 17.5681V18.2882L20.7441 18.6522C21.1457 18.8524 21.5033 19.0161 21.5387 19.0161C21.5743 19.0161 21.6034 18.7445 21.6034 18.4125C21.6034 18.0805 21.6447 17.8097 21.6951 17.8107C21.7455 17.8117 22.1719 18.0195 22.6425 18.2723L23.4982 18.7322L23.5309 21.9639L23.5634 25.1957L22.125 24.4429C21.3339 24.0289 20.2878 23.4757 19.8003 23.2136L18.914 22.737V19.5486C18.914 17.7948 18.9437 16.36 18.98 16.36C19.0163 16.36 19.2639 16.4698 19.5301 16.6039ZM29.6716 19.4963C29.6716 22.6162 29.6702 22.6334 29.3966 22.808C29.0893 23.0039 25.0015 25.1735 24.9395 25.1735C24.9179 25.1735 24.9147 23.7269 24.9327 21.9587L24.9652 18.744L27.1656 17.5587C28.3758 16.9067 29.4349 16.3703 29.5188 16.3667C29.6373 16.3615 29.6716 17.0643 29.6716 19.4963Z" fill="white"/>
<path fill-rule="evenodd" clip-rule="evenodd" d="M9.88 26.97L12.805 29.895C13.065 30.155 13.065 30.545 12.805 30.805C12.675 30.935 12.48 31 12.35 31C12.22 31 12.025 30.935 11.895 30.805L8.97 27.88C7.995 28.595 6.825 29.05 5.525 29.05C2.47 29.05 0 26.58 0 23.525C0 20.47 2.47 18 5.525 18C8.58 18 11.05 20.47 11.05 23.525C11.05 24.825 10.595 26.06 9.88 26.97ZM5.47368 19.3684C3.2 19.3684 1.36842 21.2 1.36842 23.4737C1.36842 25.7474 3.2 27.5789 5.47368 27.5789C6.61053 27.5789 7.62105 27.1368 8.37895 26.3789C9.13684 25.6211 9.57895 24.6105 9.57895 23.4737C9.57895 21.2 7.74737 19.3684 5.47368 19.3684Z" fill="#FF7A00"/>
</svg>
