<svg width="15" height="15" viewBox="0 0 15 15" fill="none" xmlns="http://www.w3.org/2000/svg">
<path d="M13.5375 6.52494L12.925 9.13744C12.4 11.3937 11.3625 12.3062 9.41251 12.1187C9.10001 12.0937 8.76251 12.0374 8.40001 11.9499L7.35001 11.6999C4.74376 11.0812 3.93751 9.79369 4.55001 7.18119L5.16251 4.56244C5.28751 4.03119 5.43751 3.56869 5.62501 3.18744C6.35626 1.67494 7.60001 1.26869 9.68751 1.76244L10.7313 2.00619C13.35 2.61869 14.15 3.91244 13.5375 6.52494Z" stroke="#555556" stroke-width="1.5" stroke-linecap="round" stroke-linejoin="round"/>
<path d="M9.41252 12.1187C9.02502 12.3812 8.53752 12.6 7.94377 12.7937L6.95627 13.1187C4.47502 13.9187 3.16876 13.25 2.36251 10.7687L1.56251 8.3C0.762515 5.81875 1.42501 4.50625 3.90626 3.70625L4.89376 3.38125C5.15001 3.3 5.39376 3.23125 5.62501 3.1875C5.43751 3.56875 5.28751 4.03125 5.16251 4.5625L4.55001 7.18125C3.93751 9.79375 4.74377 11.0812 7.35002 11.7L8.40001 11.95C8.76251 12.0375 9.10002 12.0937 9.41252 12.1187Z" stroke="#555556" stroke-width="1.5" stroke-linecap="round" stroke-linejoin="round"/>
<path d="M7.89999 5.3313L10.9312 6.10005" stroke="#555556" stroke-width="1.5" stroke-linecap="round" stroke-linejoin="round"/>
<path d="M7.28751 7.75L9.10001 8.2125" stroke="#555556" stroke-width="1.5" stroke-linecap="round" stroke-linejoin="round"/>
</svg>
