<svg width="27" height="25" viewBox="0 0 27 25" fill="none" xmlns="http://www.w3.org/2000/svg">
<path fill-rule="evenodd" clip-rule="evenodd" d="M24.7413 0.0499566C24.4297 0.156312 24.0759 0.391129 23.8771 0.62336C23.6889 0.843246 23.4766 1.31594 23.4766 1.5152C23.4766 1.57307 23.435 1.63353 23.3843 1.64957C22.671 1.87515 22.2105 2.4705 22.2105 3.16719C22.2105 3.38492 22.1858 3.46954 22.0993 3.54767C21.9575 3.67587 21.8123 3.96465 21.7688 4.20448C21.6919 4.6289 22.03 5.20589 22.4479 5.36332C22.8949 5.53176 23.4678 5.36806 23.7292 4.99724C23.8398 4.84024 23.9163 4.78812 24.0665 4.76744C24.5458 4.70139 25.1323 4.22036 25.2824 3.77019C25.3513 3.5635 25.3722 3.54719 25.6764 3.46395C26.5086 3.23615 27.078 2.42851 26.9913 1.59887C26.897 0.696479 26.2006 0.0391417 25.2996 0.00184327C25.0949 -0.00665042 24.8436 0.0150323 24.7413 0.0499566ZM18.0109 2.06117C17.7737 2.1354 17.3957 2.37929 17.2158 2.57427C17.063 2.73977 16.8501 3.17991 16.8081 3.4172C16.7784 3.58544 16.7449 3.61958 16.528 3.7024C15.9807 3.91142 15.5694 4.48277 15.5234 5.09795C15.5037 5.36194 15.4692 5.47252 15.375 5.57376C14.9863 5.99153 15.0046 6.76625 15.4119 7.14071C15.8474 7.54108 16.6291 7.49866 17.003 7.0544C17.0816 6.96097 17.1459 6.8657 17.1459 6.84259C17.1459 6.81953 17.2466 6.7845 17.3696 6.76483C17.8758 6.6839 18.4135 6.24539 18.5975 5.76347C18.6807 5.5459 18.7018 5.5296 19.0102 5.44572C20.3246 5.08825 20.7522 3.47397 19.7879 2.5097C19.3127 2.03447 18.6393 1.86449 18.0109 2.06117ZM20.954 6.46159C20.7671 6.63616 20.7111 6.86649 20.7442 7.32436C20.7646 7.60602 20.7889 7.666 20.9359 7.79736C21.0285 7.88009 21.1513 7.94777 21.2089 7.94777C21.3022 7.94777 21.3136 7.9837 21.3133 8.2775C21.3127 8.92892 21.2493 9.47769 21.1748 9.47769C21.136 9.47769 21.0277 9.54612 20.934 9.62979C20.7781 9.76911 20.762 9.81327 20.7426 10.1566C20.715 10.6449 20.7538 10.7801 20.9834 10.9966L21.1735 11.176L21.0574 13.6109C20.9935 14.9501 20.9419 16.1229 20.9428 16.2173L20.9443 16.3887H19.5241H18.1039L18.0736 16.059C18.0569 15.8777 18.0192 15.2307 17.9896 14.6214C17.9601 14.0121 17.9256 13.4183 17.913 13.3019C17.8924 13.1129 17.9062 13.0809 18.0417 13.0032C18.2899 12.8607 18.3726 12.6365 18.3511 12.1639C18.3343 11.7936 18.317 11.7365 18.1777 11.5911C18.0926 11.5023 17.9815 11.4297 17.9309 11.4297C17.8056 11.4297 17.7897 11.3465 17.7698 10.5894L17.7526 9.93382L17.9138 9.89156C18.2131 9.81306 18.3287 9.62572 18.351 9.18284C18.3734 8.74085 18.3094 8.52677 18.1076 8.36802C17.9825 8.26964 17.8858 8.26431 16.2196 8.26431H14.4635L14.3042 8.42352C14.1256 8.60221 14.0553 8.90471 14.1001 9.30238C14.1334 9.59771 14.2785 9.80441 14.4992 9.87109C14.6629 9.92052 14.6664 9.92807 14.666 10.2404C14.6659 10.4157 14.6509 10.7491 14.6328 10.9812C14.6009 11.3888 14.5941 11.406 14.4352 11.4824C14.2118 11.5899 14.0862 11.8609 14.0862 12.2359C14.0861 12.6098 14.1946 12.8865 14.3735 12.9679C14.5355 13.0418 14.5331 12.9635 14.429 14.7005C14.3864 15.4114 14.3512 16.0821 14.3507 16.1909L14.3498 16.3887H13.2683H12.1868L12.1867 13.8432C12.1867 10.9942 12.1902 11.0229 11.8176 10.8357C11.6443 10.7487 11.286 10.7438 6.01441 10.7566C-0.163197 10.7716 0.243445 10.7484 0.0793745 11.0942C0.0104226 11.2395 0.000240728 12.0695 0.000240728 17.5493C0.000240728 24.5213 -0.0212837 24.0992 0.342732 24.272C0.502054 24.3476 1.67429 24.3542 12.6615 24.342L24.8041 24.3285L24.9581 24.1562C25.0933 24.0048 25.112 23.944 25.1118 23.655C25.1117 23.4741 24.9812 20.6791 24.8219 17.4438C24.6625 14.2086 24.5321 11.4619 24.5319 11.3402C24.5318 11.1505 24.5524 11.109 24.6768 11.05C24.8843 10.9515 25.0064 10.672 25.0064 10.2954C25.0064 9.89172 24.8848 9.64034 24.6293 9.51541L24.4366 9.42124L24.399 8.7686C24.3782 8.4097 24.371 8.08689 24.3829 8.05123C24.3948 8.01562 24.4843 7.95996 24.5819 7.92757C24.8489 7.83888 24.9715 7.63567 24.9966 7.24021C25.023 6.82645 24.9407 6.55882 24.744 6.41875C24.6014 6.31719 24.5148 6.31234 22.8541 6.31234H21.1138L20.954 6.46159ZM5.17031 15.2545V18.1297H3.58764H2.00496V15.2545V12.3793H3.58764H5.17031V15.2545ZM10.1821 15.2545V18.1297H8.59944H7.01677V15.2545V12.3793H8.59944H10.1821V15.2545ZM14.1907 19.0661C14.1902 19.0879 14.155 19.6873 14.1124 20.3982C14.0699 21.109 14.0346 21.7085 14.0341 21.7302C14.0337 21.752 13.6178 21.7698 13.1101 21.7698H12.1868V20.3982V19.0265H13.1892C13.7405 19.0265 14.1912 19.0443 14.1907 19.0661ZM20.7682 19.5409C20.7501 19.8238 20.7195 20.441 20.7001 20.9125L20.665 21.7698H19.5221H18.3793L18.3158 20.5432C18.2808 19.8686 18.2526 19.2513 18.253 19.1716L18.2538 19.0265H19.5274H20.8011L20.7682 19.5409ZM5.17031 21.3478V22.7194H3.58764H2.00496V21.3478V19.9761H3.58764H5.17031V21.3478ZM10.1821 21.3478V22.7194H8.59944H7.01677V21.3478V19.9761H8.59944H10.1821V21.3478Z" fill="white"/>
</svg>
