<svg width="31" height="27" viewBox="0 0 31 27" fill="none" xmlns="http://www.w3.org/2000/svg">
<path fill-rule="evenodd" clip-rule="evenodd" d="M6.11792 1.68503L4 3.36976L4.08449 14.185L4.16865 25H17.5H30.8314L30.9155 14.1686L31 3.33713L28.8895 1.66856L26.7793 0H17.5074H8.23551L6.11792 1.68503ZM16.8575 2.09581V2.99401H11.6496H6.44173L7.55385 2.10808C8.65762 1.22844 8.69617 1.22186 12.7617 1.20988L16.8575 1.1976V2.09581ZM27.4461 2.10808L28.5583 2.99401H23.3504H18.1425V2.09581V1.1976L22.2383 1.20988C26.3038 1.22186 26.3424 1.22844 27.4461 2.10808ZM29.707 14.0719V23.9521H17.5H5.29298V14.0719V4.19162H17.5H29.707V14.0719ZM14.1498 7.05719C13.8723 7.31617 13.6452 7.77814 13.6452 8.08383C13.6452 9.2518 14.4929 9.58084 17.5 9.58084C20.5071 9.58084 21.3548 9.2518 21.3548 8.08383C21.3548 6.91587 20.5071 6.58683 17.5 6.58683C15.3416 6.58683 14.5327 6.7003 14.1498 7.05719ZM20.0699 8.08383C20.0699 8.25838 18.9992 8.38323 17.5 8.38323C16.0008 8.38323 14.9301 8.25838 14.9301 8.08383C14.9301 7.90928 16.0008 7.78443 17.5 7.78443C18.9992 7.78443 20.0699 7.90928 20.0699 8.08383ZM20.2305 17.0659C19.3455 17.9269 19.3362 17.9641 20.0098 17.9641C20.6154 17.9641 20.7124 18.1296 20.7124 19.1617C20.7124 20.1596 20.8193 20.3593 21.3548 20.3593C21.8904 20.3593 21.9973 20.1596 21.9973 19.1617C21.9973 18.1296 22.0943 17.9641 22.6999 17.9641C23.3735 17.9641 23.3642 17.9269 22.4792 17.0659C21.9713 16.5719 21.4654 16.1677 21.3548 16.1677C21.2443 16.1677 20.7384 16.5719 20.2305 17.0659ZM24.7278 17.0659C23.8428 17.9269 23.8335 17.9641 24.5072 17.9641C25.1127 17.9641 25.2097 18.1296 25.2097 19.1617C25.2097 20.1596 25.3167 20.3593 25.8522 20.3593C26.3877 20.3593 26.4946 20.1596 26.4946 19.1617C26.4946 18.1296 26.5917 17.9641 27.1972 17.9641C27.8708 17.9641 27.8615 17.9269 26.9765 17.0659C26.4686 16.5719 25.9627 16.1677 25.8522 16.1677C25.7417 16.1677 25.2357 16.5719 24.7278 17.0659ZM19.4274 21.5569C19.4274 22.1248 19.6417 22.1557 23.6035 22.1557C27.5653 22.1557 27.7796 22.1248 27.7796 21.5569C27.7796 20.9889 27.5653 20.9581 23.6035 20.9581C19.6417 20.9581 19.4274 20.9889 19.4274 21.5569Z" fill="white"/>
<circle cx="6" cy="21" r="5.5" fill="#212121" stroke="white"/>
<path d="M9 21H3" stroke="#EF2525" stroke-width="1.5" stroke-miterlimit="10" stroke-linecap="round" stroke-linejoin="round"/>
</svg>
