<svg width="26" height="26" viewBox="0 0 26 26" fill="none" xmlns="http://www.w3.org/2000/svg">
<path d="M19.5433 14.6792C19.0883 15.1234 18.8283 15.7625 18.8933 16.445C18.9908 17.615 20.0633 18.4709 21.2333 18.4709H23.2916V19.76C23.2916 22.0025 21.4608 23.8334 19.2183 23.8334H8.26581C8.60165 23.5517 8.89414 23.205 9.12164 22.815C9.52248 22.165 9.74998 21.3959 9.74998 20.5834C9.74998 18.1892 7.81081 16.25 5.41665 16.25C4.39831 16.25 3.45581 16.6075 2.70831 17.2034V12.4692C2.70831 10.2267 4.53914 8.39587 6.78164 8.39587H19.2183C21.4608 8.39587 23.2916 10.2267 23.2916 12.4692V14.0292H21.1033C20.4966 14.0292 19.9441 14.2675 19.5433 14.6792Z" stroke="white" stroke-width="1.5" stroke-linecap="round" stroke-linejoin="round"/>
<path d="M2.70831 13.4442V8.49339C2.70831 7.20422 3.49915 6.05584 4.70165 5.60084L13.3033 2.35084C14.6466 1.84167 16.0875 2.83837 16.0875 4.2792V8.39586" stroke="white" stroke-width="1.5" stroke-linecap="round" stroke-linejoin="round"/>
<path d="M24.4387 15.1344V17.3661C24.4387 17.9619 23.962 18.4494 23.3554 18.4711H21.232C20.062 18.4711 18.9895 17.6152 18.892 16.4452C18.827 15.7627 19.087 15.1236 19.542 14.6794C19.9429 14.2677 20.4954 14.0294 21.102 14.0294H23.3554C23.962 14.0511 24.4387 14.5385 24.4387 15.1344Z" stroke="white" stroke-width="1.5" stroke-linecap="round" stroke-linejoin="round"/>
<path d="M7.58331 13H15.1666" stroke="white" stroke-width="1.5" stroke-linecap="round" stroke-linejoin="round"/>
<path d="M9.74998 20.5833C9.74998 21.3958 9.52248 22.165 9.12164 22.815C8.89414 23.205 8.60165 23.5517 8.26581 23.8333C7.50748 24.5158 6.51081 24.9167 5.41665 24.9167C3.83498 24.9167 2.45915 24.0717 1.71165 22.815C1.31081 22.165 1.08331 21.3958 1.08331 20.5833C1.08331 19.2183 1.71165 17.9942 2.70831 17.2033C3.45581 16.6075 4.39831 16.25 5.41665 16.25C7.81081 16.25 9.74998 18.1892 9.74998 20.5833Z" stroke="white" stroke-width="1.5" stroke-miterlimit="10" stroke-linecap="round" stroke-linejoin="round"/>
<path d="M7.04761 20.5723L3.80731 20.5618" stroke="#EF2525" stroke-width="1.5" stroke-miterlimit="10" stroke-linecap="round" stroke-linejoin="round"/>
</svg>
