<svg width="27" height="27" viewBox="0 0 27 27" fill="none" xmlns="http://www.w3.org/2000/svg">
<path fill-rule="evenodd" clip-rule="evenodd" d="M0.41332 0.105793C0.18858 0.225722 0 0.53799 0 0.790241C0 1.05193 0.188367 1.35576 0.424663 1.47516C0.609728 1.56867 0.738022 1.58133 1.49884 1.58133H2.36286L2.61295 1.83833C2.77075 2.00039 2.90682 2.20971 2.98154 2.40527C3.07458 2.64877 3.34975 4.56958 4.26511 11.3644C4.90594 16.1215 5.45725 20.1323 5.49027 20.2773C5.71927 21.2838 6.63794 22.2643 7.6481 22.5805C7.95134 22.6754 8.03276 22.7213 8.0063 22.7825C7.81431 23.2261 7.75487 23.4909 7.73405 23.9964C7.71365 24.4906 7.72638 24.596 7.85079 24.963C8.12788 25.7804 8.67493 26.3924 9.43249 26.7326C10.0653 27.0167 10.6859 27.0694 11.3671 26.8969C11.9132 26.7586 12.3067 26.5307 12.7282 26.1088C13.5105 25.3256 13.7764 24.1532 13.4028 23.1341L13.274 22.7825H15.35C17.3068 22.7825 17.4238 22.7878 17.3866 22.8747C16.963 23.8645 17.0501 24.8667 17.6351 25.7342C18.1457 26.4913 19.1165 27 20.0509 27C20.7983 27 21.5896 26.6677 22.1292 26.1271C22.9879 25.2668 23.2092 24.0419 22.7161 22.8785C22.6817 22.7974 22.7775 22.7885 23.8507 22.773C24.9367 22.7573 25.0336 22.7481 25.1698 22.6473C25.6573 22.2865 25.6811 21.6742 25.2207 21.3338C25.0768 21.2274 25.0162 21.2264 16.6786 21.2003L8.28131 21.1739L7.97296 21.0193C7.61833 20.8415 7.2768 20.4995 7.13583 20.1811C7.0487 19.9844 6.87003 18.9427 6.87003 18.6314V18.5106H14.9538C15.4903 18.5106 15.9924 18.5107 16.4626 18.5107C22.7352 18.5118 23.3126 18.5119 23.7923 18.2955C23.8409 18.2735 23.8885 18.2494 23.941 18.2228C23.9798 18.2031 24.0213 18.182 24.0677 18.1596C24.8339 17.789 25.5365 16.9294 25.7474 16.1044C25.8474 15.7135 27.0011 7.16065 27 6.81843C26.9966 5.7262 26.2504 4.71967 25.1767 4.3591C24.8544 4.25088 24.7406 4.24682 21.5554 4.22989L20.9308 4.22768V5.80046L21.3423 5.80077C23.4002 5.80093 24.4884 5.82013 24.6309 5.85868C25.0688 5.97713 25.3992 6.37705 25.4019 6.79206C25.4026 6.88788 25.1391 8.92889 24.8165 11.3276C24.2551 15.5009 24.2229 15.7032 24.0682 16.0173C23.8812 16.3973 23.5728 16.6748 23.1688 16.8269C22.9067 16.9255 22.6644 16.9284 14.7634 16.9284H6.62782L5.89427 11.4567C5.4908 8.44733 5.16189 5.94333 5.16328 5.89238C5.16567 5.80478 5.36331 5.80046 8.77393 5.81327L9.26743 5.81513V4.21828H8.66145H4.91425L4.82308 3.49312C4.63466 1.99464 4.3925 1.39147 3.70417 0.705806C3.07894 0.0830625 2.92983 0.0334877 1.62431 0.0143434C0.694831 0.000683987 0.596254 0.00817294 0.41332 0.105793ZM12.4087 4.21828H12.382V5.82683V7.1453V8.46378L11.5805 8.49015C10.6967 8.51921 10.582 8.55602 10.3794 8.87536C10.244 9.0889 10.2626 9.5221 10.4153 9.70937C10.4718 9.77862 11.5257 10.8241 12.7573 12.0326C14.7169 13.9555 15.0218 14.2346 15.1989 14.2675L15.2018 14.268C15.2748 14.2816 15.3363 14.293 15.3978 14.293C15.7254 14.2931 16.0531 13.9687 18.1269 11.9156L18.1426 11.9001C20.289 9.77493 20.4438 9.60943 20.4766 9.40343C20.5242 9.1044 20.3686 8.75743 20.1179 8.60407C19.948 8.50007 19.8594 8.49015 19.0993 8.49015H18.2668V7.1453V5.80046V4.21828V2.40822C18.2668 0.370807 18.2624 0.346125 17.8619 0.118661C17.6559 0.0017915 17.637 0.000894945 15.3377 0.000103858L15.2783 8.28941e-05C13.2444 -0.000640598 12.8629 -0.000776321 12.6629 0.189713C12.6167 0.233702 12.5802 0.287855 12.5352 0.354514L12.5295 0.362949C12.4096 0.54068 12.4087 0.557082 12.4087 2.38022V4.21828ZM16.6814 5.55928C16.6955 9.4836 16.6973 9.53919 16.8056 9.68285C16.9824 9.91743 17.1588 10.0196 17.4421 10.0516L17.7076 10.0816L16.536 11.2365L15.3644 12.3914L14.2055 11.2451L13.0466 10.0987L13.2353 10.0596C13.5183 10.001 13.7176 9.88252 13.8557 9.69076L13.9797 9.51856L13.9943 5.54995L14.0089 1.58133H15.3381H16.6672L16.6814 5.55928ZM11.2142 22.908C12.2204 23.372 12.2151 24.7947 11.2052 25.2909C10.908 25.437 10.3282 25.4287 10.0311 25.2741C9.75325 25.1296 9.462 24.796 9.38163 24.5303C9.29525 24.2449 9.30462 23.8172 9.4023 23.585C9.5111 23.3263 9.82696 23.0048 10.092 22.8828C10.4006 22.7408 10.8746 22.7514 11.2142 22.908ZM20.7484 22.9696C21.0566 23.1578 21.3259 23.5627 21.3798 23.9186C21.4572 24.4296 21.1375 25.0167 20.6403 25.2766C20.4784 25.3613 20.3295 25.3899 20.0509 25.3899C19.6086 25.3899 19.3464 25.2748 19.0508 24.9508C18.4735 24.318 18.6722 23.3059 19.4503 22.9163C19.6916 22.7954 19.7848 22.778 20.1093 22.7928C20.4185 22.8069 20.5348 22.8391 20.7484 22.9696Z" fill="white"/>
</svg>
