<svg width="24" height="22" viewBox="0 0 24 22" fill="none" xmlns="http://www.w3.org/2000/svg">
<path fill-rule="evenodd" clip-rule="evenodd" d="M5.9225 4.3692C2.66525 6.83706 0 8.95395 0 9.07328C0 9.46603 0.48075 9.58753 0.99075 9.32376C1.48575 9.06772 1.49275 9.14429 1.5585 15.5324L1.625 22H12H22.375L22.4415 15.5324C22.5072 9.14429 22.5142 9.06772 23.0093 9.32376C23.519 9.58728 24 9.46603 24 9.07376C24 8.84888 12.735 0.212227 12.167 0.00160039C11.99 -0.0640996 9.18 1.90135 5.9225 4.3692ZM16.9678 4.74505L21.5 8.18101V14.6677V21.1546H12H2.5V14.6672V8.17981L7.1875 4.64094C9.76575 2.69482 12.001 1.14869 12.1552 1.2057C12.3095 1.26246 14.475 2.8552 16.9678 4.74505ZM11.5 7.12619C11.5 7.44237 11.222 7.67933 10.629 7.86845C9.44825 8.24502 8.75 9.15903 8.75 10.3286C8.75 11.6235 9.5195 12.3003 11.7085 12.93C12.6825 13.2104 13.6528 13.6073 13.8647 13.8119C14.8995 14.8119 13.7373 16.3237 11.9333 16.3237C11.1153 16.3237 10.7845 16.1706 10.1088 15.4783C9.176 14.5228 8.5 14.3783 8.5 15.1346C8.5 15.8196 9.7985 17.0215 10.7338 17.2022C11.2618 17.3041 11.5 17.4911 11.5 17.8032C11.5 18.095 11.6777 18.2561 12 18.2561C12.319 18.2561 12.5 18.095 12.5 17.8111C12.5 17.5046 12.7983 17.28 13.4593 17.0887C14.8542 16.6848 15.375 16.0174 15.375 14.6329C15.375 13.0933 14.8472 12.5725 12.643 11.9373C10.63 11.3571 10 10.9295 10 10.144C10 8.47932 12.8477 8.13246 13.8907 9.67037C14.3827 10.3962 15.25 10.5008 15.25 9.83462C15.25 9.13535 14.3323 8.17497 13.371 7.86845C12.778 7.67933 12.5 7.44237 12.5 7.12619C12.5 6.82305 12.3265 6.66194 12 6.66194C11.6735 6.66194 11.5 6.82305 11.5 7.12619Z" fill="white"/>
</svg>
