<svg width="15" height="15" viewBox="0 0 15 15" fill="none" xmlns="http://www.w3.org/2000/svg">
<path d="M1.88126 7.01245V9.8187C1.88126 12.625 3.00626 13.75 5.81251 13.75H9.18126C11.9875 13.75 13.1125 12.625 13.1125 9.8187V7.01245" stroke="#555556" stroke-width="1.5" stroke-linecap="round" stroke-linejoin="round"/>
<path d="M7.49999 7.5C8.64374 7.5 9.48749 6.56875 9.37499 5.425L8.96249 1.25H6.04374L5.62499 5.425C5.51249 6.56875 6.35624 7.5 7.49999 7.5Z" stroke="#555556" stroke-width="1.5" stroke-linecap="round" stroke-linejoin="round"/>
<path d="M11.4437 7.5C12.7062 7.5 13.6312 6.475 13.5062 5.21875L13.3312 3.5C13.1062 1.875 12.4812 1.25 10.8437 1.25H8.9375L9.375 5.63125C9.48125 6.6625 10.4125 7.5 11.4437 7.5Z" stroke="#555556" stroke-width="1.5" stroke-linecap="round" stroke-linejoin="round"/>
<path d="M3.52499 7.5C4.55624 7.5 5.48749 6.6625 5.58749 5.63125L5.72499 4.25L6.02499 1.25H4.11874C2.48124 1.25 1.85624 1.875 1.63124 3.5L1.46249 5.21875C1.33749 6.475 2.26249 7.5 3.52499 7.5Z" stroke="#555556" stroke-width="1.5" stroke-linecap="round" stroke-linejoin="round"/>
<path d="M7.5 10.625C6.45625 10.625 5.9375 11.1438 5.9375 12.1875V13.75H9.0625V12.1875C9.0625 11.1438 8.54375 10.625 7.5 10.625Z" stroke="#555556" stroke-width="1.5" stroke-linecap="round" stroke-linejoin="round"/>
</svg>
