<svg width="24" height="25" viewBox="0 0 24 25" fill="none" xmlns="http://www.w3.org/2000/svg">
<path fill-rule="evenodd" clip-rule="evenodd" d="M10.7276 0.25133C7.12703 1.3336 5.88756 3.31029 6.02508 7.75015C6.11273 10.5815 6.32913 11.6193 6.83265 11.6193C6.98105 11.6193 7.10255 11.7925 7.10255 12.0043C7.10255 12.2157 7.37456 12.916 7.70702 13.5605C8.44115 14.9832 8.49646 16.7663 7.82368 17.3317C7.5553 17.5568 6.09671 18.3461 4.5819 19.0853C1.37336 20.651 0.0927866 21.9713 0.0359662 23.7727L0 24.9087L11.7685 24.987C18.8003 25.0336 23.6509 24.9526 23.8201 24.7854C24.3176 24.2938 23.728 22.3939 22.7285 21.2662C22.1095 20.5683 20.8353 19.7536 19.192 19.0052C15.9526 17.53 15.5652 17.1868 15.5652 15.7919C15.5652 14.7344 16.591 11.9424 17.1002 11.6133C17.6334 11.2687 17.8745 9.83494 17.8525 7.13973C17.8247 3.75735 17.2822 2.53711 15.4056 1.63522C14.7452 1.31777 14.0274 0.813667 13.8101 0.515327C13.3951 -0.0553719 12.113 -0.164972 10.7276 0.25133ZM12.9919 1.65971C13.1923 1.93058 13.8067 2.30029 14.3568 2.48097C14.9072 2.66164 15.6181 3.15708 15.9369 3.58205C16.6952 4.59294 16.9533 6.58814 16.474 7.73163C16.1896 8.41073 16.1814 8.73506 16.4416 9.04475C16.7826 9.45059 16.6088 10.1694 15.8922 11.3207C14.8195 13.0435 14.3562 14.4731 14.3562 16.0604V17.7952L13.127 18.1959C12.0755 18.5388 11.7177 18.5319 10.6514 18.1478L9.40528 17.6987L9.48296 16.0427C9.54129 14.7977 9.40589 14.1359 8.93712 13.3762C8.59439 12.8204 8.31331 12.1924 8.3127 11.9807C8.3121 11.7686 8.0153 11.1994 7.65353 10.7156C7.09046 9.96336 7.04936 9.73729 7.36821 9.14867C7.64174 8.64308 7.65594 8.24081 7.42171 7.63159C6.42614 5.04448 7.97782 2.35524 10.9842 1.45813C12.2224 1.08841 12.5969 1.12604 12.9919 1.65971ZM11.0703 20.2311C11.2698 20.7499 11.2099 21.3905 10.8657 22.4145L10.3785 23.8635H5.86943C2.92232 23.8635 1.36006 23.7548 1.36006 23.5499C1.36006 23.3776 1.5674 22.8404 1.82067 22.3563C2.16915 21.6906 3.02901 21.1223 5.34625 20.0254C8.41093 18.5749 8.41123 18.5749 9.59962 19.036C10.3295 19.3191 10.8968 19.7805 11.0703 20.2311ZM20.8779 21.1928C21.7247 21.7076 22.5166 22.8607 22.5166 23.5789C22.5166 23.7464 20.6651 23.8635 18.0115 23.8635H13.5063L13.0291 22.4793C12.3693 20.5665 12.6468 19.7411 14.164 19.1047L15.4026 18.5848L17.6751 19.6058C18.9248 20.1675 20.3662 20.8816 20.8779 21.1928Z" fill="white"/>
</svg>
