<svg width="25" height="19" viewBox="0 0 25 19" fill="none" xmlns="http://www.w3.org/2000/svg">
<path fill-rule="evenodd" clip-rule="evenodd" d="M5.54466 0.0570062C6.03665 0.23128 6.32085 0.467056 6.5617 0.90094C6.6785 1.11134 6.69422 1.19224 6.69441 1.58359C6.69461 1.97439 6.6783 2.05916 6.5582 2.29125C6.04429 3.28394 4.67921 3.49882 3.84479 2.7184C3.02318 1.94995 3.25304 0.633151 4.29309 0.150429C4.62118 -0.00183265 5.24672 -0.0485673 5.54466 0.0570062ZM5.35845 3.57318C5.82729 3.71567 6.1474 3.97556 6.33287 4.3643C6.43327 4.5748 6.44701 4.69257 6.47096 5.55188L6.49761 6.50578L8.02476 7.5231C9.09352 8.2351 9.55669 8.56991 9.56783 8.63861C9.61571 8.9335 8.44625 9.47978 8.04865 9.34832C7.97052 9.32247 7.61179 9.10366 7.25138 8.86209C6.89102 8.62052 6.56717 8.40675 6.53175 8.38708C6.47908 8.35782 6.47194 8.63468 6.49258 9.90965C6.50648 10.7667 6.53337 13.1532 6.55239 15.213L6.58692 18.9579L6.4849 18.9886C6.17715 19.0813 5.26859 18.5873 5.06721 18.2179C5.00597 18.1055 4.98893 17.6072 4.96193 15.1381C4.93134 12.3434 4.92513 12.1924 4.84094 12.1924C4.79217 12.1924 4.72621 12.2396 4.69443 12.2975C4.66266 12.3554 4.11145 13.2018 3.46955 14.1786C2.82766 15.1553 2.00689 16.4066 1.64559 16.9593C0.934727 18.0467 0.874477 18.1277 0.777084 18.1277C0.671907 18.1277 0.373816 17.8151 0.239969 17.5645C0.0588779 17.2255 -0.0392036 16.8263 0.0147877 16.6478C0.0391235 16.5672 0.794918 15.3833 1.69426 14.0167L3.3294 11.5322L3.296 9.53722C3.27758 8.43998 3.2561 7.53614 3.24827 7.52866C3.24043 7.52118 2.79583 8.18364 2.2603 9.0008C1.72481 9.81795 1.24617 10.5273 1.19671 10.5771C1.11784 10.6565 1.09178 10.6601 0.985712 10.6062C0.682055 10.452 0.317608 9.76262 0.317165 9.34154C0.316917 9.08562 0.323027 9.0752 1.74811 6.91134C2.53528 5.7161 3.25521 4.58802 3.34793 4.40445C3.53852 4.0273 3.75755 3.82031 4.14352 3.65267C4.48186 3.50574 5.0206 3.4705 5.35845 3.57318ZM17.7721 5.04532C17.8435 5.09855 18.2677 5.63806 18.7148 6.24416C19.4224 7.20334 19.5277 7.36934 19.5277 7.52525C19.5277 7.65666 19.4916 7.74041 19.3922 7.83977C19.268 7.96394 15.8002 10.2846 15.5529 10.409C15.4084 10.4818 15.2655 10.4772 15.0969 10.3945C14.977 10.3357 14.2357 9.38075 13.4324 8.25029C13.2558 8.0018 13.2343 7.86244 13.3421 7.66475C13.4036 7.55193 14.8753 6.5413 16.9062 5.21721C17.3649 4.91816 17.552 4.881 17.7721 5.04532ZM15.6255 6.58808C14.6152 7.25853 13.77 7.82397 13.7474 7.84463C13.7155 7.87361 15.1106 9.83366 15.2894 10.0112C15.3431 10.0646 19.0963 7.56922 19.068 7.49907C19.0226 7.3871 17.5207 5.3691 17.4826 5.3691C17.4715 5.3691 16.6357 5.91767 15.6255 6.58808ZM18.3299 7.15819C18.4106 7.26662 18.4916 7.3799 18.51 7.40995C18.5307 7.44402 18.3624 7.58352 18.0625 7.7807C17.7982 7.95455 17.5127 8.14588 17.4282 8.20589L17.2747 8.31497L17.0875 8.05713C16.9846 7.91529 16.9096 7.79252 16.9209 7.78425C16.9809 7.74032 18.0827 7.01705 18.1288 6.99135C18.1592 6.97443 18.2478 7.04799 18.3299 7.15819ZM21.0532 7.50721C21.1343 7.57787 21.9215 8.61365 22.8022 9.80889C24.5751 12.2146 24.554 12.1764 24.2692 12.4715C24.1947 12.5487 23.1701 13.251 21.9923 14.0322L19.8507 15.4525L19.6392 15.355C19.5229 15.3014 19.4336 15.2421 19.4407 15.2232C19.4479 15.2044 20.4403 14.5346 21.646 13.7348C22.8517 12.9351 23.8689 12.252 23.9065 12.2168C23.9645 12.1626 23.7359 11.8292 22.3854 9.99858C21.5113 8.81367 20.7784 7.83388 20.7568 7.82122C20.7131 7.79561 15.8671 10.9968 15.8422 11.0678C15.8335 11.0925 16.2978 11.7499 16.8738 12.5287C17.4498 13.3076 18.1143 14.2078 18.3505 14.5291L18.7799 15.1133L18.5504 15.1388C18.3556 15.1605 18.3045 15.1483 18.2135 15.0584C18.1546 15.0002 17.495 14.1233 16.748 13.1099C15.5134 11.4352 15.3896 11.25 15.3896 11.0781C15.3896 10.9476 15.4239 10.853 15.5004 10.7727C15.603 10.6651 20.2567 7.55492 20.4974 7.43313C20.6816 7.33994 20.8934 7.36817 21.0532 7.50721ZM12.474 8.28085C12.5416 8.31025 13.637 9.75159 15.1688 11.8268L17.7498 15.3233L17.5919 15.3994C17.505 15.4412 17.3386 15.5487 17.2219 15.6384C17.1053 15.728 16.9945 15.7874 16.9756 15.7704C16.9568 15.7533 15.843 14.2525 14.5004 12.4353L12.0595 9.13124H11.0767C9.98917 9.13124 9.91444 9.11413 9.8203 8.84354C9.74966 8.64043 9.85907 8.39437 10.0508 8.32502C10.2464 8.25426 12.3254 8.21636 12.474 8.28085ZM22.997 11.7794L23.1684 12.0208L22.7166 12.323C21.9189 12.8566 21.8876 12.8736 21.8415 12.7975C21.8189 12.7603 21.7435 12.6574 21.674 12.5688C21.6044 12.4803 21.5475 12.3937 21.5475 12.3764C21.5475 12.3434 22.7479 11.5381 22.7971 11.5381C22.8128 11.5381 22.9028 11.6467 22.997 11.7794ZM24.8655 13.008C25.0106 13.1355 25.0457 13.4189 24.9343 13.5623C24.9004 13.6059 23.9427 14.2593 22.8061 15.0144L20.7394 16.3871L20.5966 16.1708C20.518 16.0518 20.3962 15.8965 20.326 15.8256C20.2492 15.7482 20.2168 15.6812 20.2448 15.6576C20.2903 15.6191 23.8498 13.2581 24.2269 13.0163C24.4712 12.8595 24.6935 12.8567 24.8655 13.008ZM19.0236 15.6044C19.3362 15.6664 19.8073 15.9224 20.0056 16.1382C20.1017 16.2428 20.2386 16.444 20.3097 16.5854C20.4215 16.8076 20.4389 16.9026 20.4382 17.2864C20.4374 17.6676 20.4188 17.768 20.3066 17.9966C19.6663 19.3014 17.7025 19.3082 17.0369 18.0079C16.9112 17.7622 16.8948 17.6795 16.894 17.2864C16.8932 16.9033 16.9108 16.8072 17.022 16.5854C17.2183 16.1937 17.4648 15.956 17.8677 15.7703C18.2574 15.5906 18.6612 15.5327 19.0236 15.6044ZM18.2125 16.6453C17.6383 17.0176 17.7914 17.8556 18.4651 18.0284C19.1492 18.2038 19.7201 17.4967 19.3706 16.9068C19.1333 16.5063 18.6093 16.388 18.2125 16.6453Z" fill="white"/>
</svg>
