<svg width="26" height="29" viewBox="0 0 26 29" fill="none" xmlns="http://www.w3.org/2000/svg">
<path fill-rule="evenodd" clip-rule="evenodd" d="M4.62099 0.0595463C4.37496 0.13048 4.02233 0.495198 3.95084 0.752659C3.91452 0.883432 3.89222 1.7411 3.89205 3.01598L3.89172 5.06866L2.55308 5.08605C1.21576 5.10338 1.21411 5.10355 0.900781 5.25739C0.545448 5.43189 0.286166 5.69934 0.116255 6.0666L0 6.31782V16.5577V26.7976L0.145456 27.1079C0.350089 27.5443 0.641996 27.8436 1.06744 28.0529L1.43293 28.2329H13.1092H24.7856L25.0992 28.0789C25.4546 27.9044 25.7138 27.6369 25.8837 27.2697L26 27.0185V19.4282V11.838L25.8448 11.522C25.677 11.1802 25.3438 10.8561 25.0516 10.7504L24.8684 10.6842V8.31882C24.8684 6.36987 24.8544 5.92727 24.7892 5.80444C24.6934 5.62437 19.2058 0.144833 19.0344 0.0581663C18.8792 -0.0202753 4.89319 -0.0189505 4.62099 0.0595463ZM18.2558 3.48873L18.2718 5.8762L18.4028 6.08691C18.4748 6.20283 18.6344 6.3643 18.7575 6.44572L18.9812 6.59383L21.3727 6.60984L23.7643 6.62584V8.6109V10.596H14.38H4.99575V5.8486V1.10126H11.6178H18.2397L18.2558 3.48873ZM21.1699 3.72334L22.9632 5.51739H21.1557H19.3482V3.72334C19.3482 2.73661 19.3545 1.92928 19.3623 1.92928C19.3701 1.92928 20.1835 2.73661 21.1699 3.72334ZM3.89172 8.43199V10.6842L3.70851 10.7504C3.41632 10.8561 3.08313 11.1802 2.91526 11.522L2.76008 11.838L2.73248 19.2074C2.70532 26.4531 2.70301 26.5799 2.59448 26.7615C2.4668 26.975 2.14983 27.1565 1.90446 27.1565C1.63055 27.1565 1.31253 26.9612 1.18755 26.7163C1.07737 26.5003 1.07643 26.4136 1.07837 16.5461C1.07997 8.39119 1.09355 6.56998 1.15349 6.46189C1.29619 6.20443 1.40908 6.18384 2.69108 6.18175L3.89172 6.17981V8.43199ZM7.4859 8.07853C7.11594 8.28355 7.12808 8.86742 7.50589 9.03954C7.61557 9.08955 9.28145 9.1055 14.3854 9.1055C20.1063 9.1055 21.143 9.09364 21.2723 9.02684C21.6396 8.83684 21.6396 8.27014 21.2723 8.08013C21.0534 7.96697 7.68993 7.96542 7.4859 8.07853ZM24.6215 11.766C24.9397 11.9109 24.9236 11.5018 24.9236 19.4282C24.9236 27.3546 24.9397 26.9455 24.6215 27.0905C24.5109 27.1409 22.0217 27.1565 14.0738 27.1565C8.35224 27.1565 3.67119 27.1502 3.67152 27.1427C3.67185 27.1351 3.70911 27.0069 3.75432 26.8579C3.82509 26.6246 3.83652 25.7039 3.83652 20.2475V13.9081H5.13652C6.15366 13.9081 6.46958 13.8909 6.5886 13.8294C6.95597 13.6394 6.95597 13.0727 6.5886 12.8827C6.46958 12.8211 6.15366 12.804 5.13652 12.804H3.83652L3.83845 12.459C3.84066 12.0783 3.91893 11.8877 4.1186 11.777C4.30292 11.6749 24.3978 11.664 24.6215 11.766ZM8.53473 12.8811C8.05619 13.1463 8.25641 13.9081 8.80467 13.9081C9.08438 13.9081 9.35669 13.6384 9.35669 13.3614C9.35669 12.9469 8.89868 12.6793 8.53473 12.8811Z" fill="white"/>
</svg>
