<svg width="19" height="18" viewBox="0 0 19 18" fill="none" xmlns="http://www.w3.org/2000/svg">
<path fill-rule="evenodd" clip-rule="evenodd" d="M1.49039 1.21322L0 2.42623L0.0594527 10.2132L0.118679 18H9.5H18.8813L18.9405 10.2014L19 2.40273L17.5148 1.20137L16.0299 0H9.5052H2.98055L1.49039 1.21322ZM9.04789 1.50898V2.15569H5.38307H1.71825L2.50086 1.51782C3.27758 0.884479 3.30471 0.879737 6.16567 0.871114L9.04789 0.862275V1.50898ZM16.4991 1.51782L17.2817 2.15569H13.6169H9.95211V1.50898V0.862275L12.8343 0.871114C15.6953 0.879737 15.7224 0.884479 16.4991 1.51782ZM18.0901 10.1317V17.2455H9.5H0.909875V10.1317V3.01796H9.5H18.0901V10.1317ZM7.14246 5.08117C6.94715 5.26764 6.78733 5.60026 6.78733 5.82036C6.78733 6.66129 7.38389 6.8982 9.5 6.8982C11.6161 6.8982 12.2127 6.66129 12.2127 5.82036C12.2127 4.97942 11.6161 4.74251 9.5 4.74251C7.98113 4.74251 7.41192 4.82422 7.14246 5.08117ZM11.3084 5.82036C11.3084 5.94604 10.555 6.03593 9.5 6.03593C8.445 6.03593 7.69155 5.94604 7.69155 5.82036C7.69155 5.69468 8.445 5.60479 9.5 5.60479C10.555 5.60479 11.3084 5.69468 11.3084 5.82036ZM11.4215 12.2874C10.7987 12.9074 10.7921 12.9341 11.2662 12.9341C11.6923 12.9341 11.7606 13.0533 11.7606 13.7964C11.7606 14.5149 11.8358 14.6587 12.2127 14.6587C12.5895 14.6587 12.6648 14.5149 12.6648 13.7964C12.6648 13.0533 12.7331 12.9341 13.1592 12.9341C13.6332 12.9341 13.6267 12.9074 13.0039 12.2874C12.6465 11.9317 12.2904 11.6407 12.2127 11.6407C12.1349 11.6407 11.7789 11.9317 11.4215 12.2874ZM14.5863 12.2874C13.9635 12.9074 13.9569 12.9341 14.431 12.9341C14.8571 12.9341 14.9253 13.0533 14.9253 13.7964C14.9253 14.5149 15.0006 14.6587 15.3775 14.6587C15.7543 14.6587 15.8296 14.5149 15.8296 13.7964C15.8296 13.0533 15.8978 12.9341 16.3239 12.9341C16.798 12.9341 16.7914 12.9074 16.1686 12.2874C15.8113 11.9317 15.4552 11.6407 15.3775 11.6407C15.2997 11.6407 14.9437 11.9317 14.5863 12.2874ZM10.8563 15.521C10.8563 15.9299 11.0071 15.9521 13.7951 15.9521C16.583 15.9521 16.7338 15.9299 16.7338 15.521C16.7338 15.112 16.583 15.0898 13.7951 15.0898C11.0071 15.0898 10.8563 15.112 10.8563 15.521Z" fill="white"/>
</svg>
