<svg width="27" height="21" viewBox="0 0 27 21" fill="none" xmlns="http://www.w3.org/2000/svg">
<path fill-rule="evenodd" clip-rule="evenodd" d="M15.1136 0.0608226C15.4279 0.157742 15.7781 0.518375 15.8664 0.836089C15.9229 1.03911 15.9372 1.89356 15.9626 6.57238C15.9791 9.59612 15.9955 12.0701 15.999 12.0701C16.0026 12.0701 16.2196 12.0638 16.4812 12.0562L16.957 12.0423L16.9689 7.77771L16.9809 3.51317L17.0802 3.32731C17.1907 3.12052 17.3914 2.95271 17.6193 2.87641C17.7252 2.84094 18.5544 2.82595 20.4108 2.82595H23.0517L23.275 3.06351C23.6337 3.44515 25.1427 6.04908 26.0565 7.86341L26.4611 8.66675L26.6716 10.7674C26.7874 11.9229 26.9084 13.0477 26.9406 13.2672C26.9734 13.491 26.9995 14.0555 27 14.5529C27.0008 15.358 26.9914 15.4698 26.8982 15.7667C26.6053 16.6988 26.1015 16.9895 24.6836 17.0445C24.04 17.0694 24.0059 17.0753 23.9905 17.1641C23.7997 18.2669 23.5946 18.7316 23.0328 19.3335C22.3173 20.1 21.4653 20.4703 20.4169 20.4703C19.3026 20.4703 18.3947 20.0511 17.67 19.2018C17.27 18.733 16.87 17.8128 16.87 17.3612V17.2353H13.3954H9.92072L9.86827 17.5124C9.59081 18.9785 8.55072 20.0712 7.116 20.4037C6.74251 20.4903 5.93771 20.4903 5.56422 20.4037C4.11832 20.0686 3.04698 18.9327 2.8139 17.4878L2.76016 17.1547L1.93431 17.1396C1.13577 17.1249 1.10007 17.1204 0.85729 17.0012C0.537889 16.8443 0.280163 16.5866 0.123301 16.2672L0 16.016V8.43451V0.852981L0.0980282 0.669694C0.230682 0.421677 0.445759 0.214714 0.686728 0.103164C0.886641 0.0106335 0.890188 0.0105894 7.89189 0.0022985C14.022 -0.00492834 14.9241 0.00238716 15.1136 0.0608226ZM8.5791 3.53534V6.01818H11.7563H14.9336L14.9058 3.57803C14.8906 2.23592 14.8662 1.11865 14.8517 1.09519C14.8352 1.0685 13.6557 1.0525 11.7022 1.0525H8.5791V3.53534ZM1.04346 1.13824C1.01344 1.19433 0.99757 2.05352 0.99757 3.62108V6.01818H4.27847H7.55936V3.53534V1.0525H4.32435C1.17137 1.0525 1.08819 1.05467 1.04346 1.13824ZM18.0228 8.25858C18.0228 13.0112 18.0324 12.8282 17.7739 13.0032C17.6482 13.0883 17.4974 13.0901 9.32174 13.1022L0.99757 13.1144V14.3783C0.99757 16.1582 0.949022 16.0825 2.09197 16.0825H2.85629L2.90696 15.8941C3.23266 14.6833 4.33841 13.6685 5.62057 13.4037C7.44289 13.0273 9.28813 14.1473 9.77849 15.9274L9.85173 16.1934L13.3746 16.2047L16.8975 16.2161L16.9557 15.9831C17.2837 14.6708 18.4768 13.5976 19.8533 13.3764C20.2634 13.3106 20.942 13.3414 21.3258 13.4432C22.4529 13.7424 23.4226 14.6425 23.7893 15.7299L23.8973 16.0504L24.518 16.0233C25.1642 15.995 25.6115 15.9083 25.7481 15.7846C26.0169 15.5413 26.0436 14.6107 25.8342 12.7795C25.759 12.1211 25.6431 11.0038 25.5767 10.2966L25.4561 9.01088L25.1732 8.44169C24.6696 7.42821 23.3111 4.99046 22.8159 4.21155L22.6116 3.8902L20.3172 3.89012L18.0228 3.89003V8.25858ZM22.1716 4.77161C22.2466 4.81737 22.409 5.01223 22.5325 5.20465C22.8403 5.6845 23.5258 6.90956 23.8181 7.50198C24.0287 7.9289 24.0568 8.01637 24.0382 8.18924C24.0221 8.33945 23.9835 8.41709 23.8788 8.51068L23.7407 8.63402H21.3451C18.7119 8.63402 18.7614 8.6389 18.6199 8.3653C18.5601 8.24958 18.5523 8.02178 18.5637 6.71452C18.5767 5.22278 18.5786 5.19529 18.6784 5.03484C18.7379 4.93907 18.8581 4.83382 18.9695 4.7799C19.1494 4.69283 19.2332 4.68808 20.5972 4.68826C21.9254 4.68839 22.0456 4.69478 22.1716 4.77161ZM19.6189 6.68322V7.61429H21.1485C21.9898 7.61429 22.6781 7.60258 22.6781 7.58822C22.6781 7.55461 22.4418 7.12574 22.0024 6.36178L21.6516 5.75216H20.6353H19.6189V6.68322ZM8.5791 9.58726V12.0923H11.7465C13.5066 12.0923 14.9246 12.0751 14.9379 12.0535C14.9511 12.0322 14.949 10.9049 14.9333 9.54851L14.9047 7.08225H11.7419H8.5791V9.58726ZM1.0083 9.57617L1.01974 12.0701H4.27847H7.53719L7.54863 9.57617L7.56012 7.08225H4.27847H0.996815L1.0083 9.57617ZM20.0662 14.4002C19.2414 14.534 18.5551 15.0151 18.1869 15.7173C17.6601 16.7223 17.8372 17.8978 18.635 18.6915C18.7982 18.8538 19.0551 19.0519 19.2059 19.1318C19.5424 19.3099 20.0801 19.4521 20.4169 19.4521C20.7538 19.4521 21.2914 19.3099 21.6279 19.1318C21.7788 19.0519 22.0321 18.8569 22.1908 18.6984C23.1145 17.7762 23.2027 16.3887 22.4041 15.343C22.0847 14.9248 21.4897 14.5471 20.9933 14.4475C20.8592 14.4206 20.7095 14.3908 20.6608 14.3812C20.4978 14.3491 20.3526 14.3537 20.0662 14.4002ZM5.59561 14.4873C4.79906 14.7347 4.18651 15.3585 3.8985 16.2156C3.79272 16.5304 3.78793 17.247 3.88946 17.5736C4.03475 18.0409 4.20172 18.3137 4.56541 18.6781C5.07679 19.1904 5.6744 19.4506 6.34011 19.4506C7.25309 19.4506 8.17883 18.8761 8.58114 18.0598C8.76225 17.6923 8.8879 17.2184 8.8879 16.9028C8.8879 16.3577 8.59998 15.6377 8.21191 15.2122C7.53946 14.4749 6.5332 14.1961 5.59561 14.4873ZM20.6164 15.9901C21.074 16.1047 21.3491 16.452 21.347 16.9124C21.3433 17.7102 20.4073 18.1454 19.8146 17.625C19.7284 17.5494 19.6193 17.4116 19.5719 17.3189C19.4135 17.0083 19.4822 16.523 19.7208 16.2672C19.926 16.0473 20.337 15.92 20.6164 15.9901ZM6.57376 15.9913C7.17585 16.141 7.46461 16.8589 7.13794 17.3939C6.97802 17.6559 6.63251 17.856 6.34011 17.856C6.09347 17.856 5.70335 17.6547 5.57526 17.4614C5.3534 17.1265 5.34281 16.751 5.54551 16.4052C5.73372 16.084 6.19677 15.8977 6.57376 15.9913Z" fill="white"/>
</svg>
